<svg xmlns="http://www.w3.org/2000/svg" xmlns:xlink="http://www.w3.org/1999/xlink" contentStyleType="text/css" data-diagram-type="CLASS" height="669px" preserveAspectRatio="none" style="width:193px;height:669px;background:#FFFFFF;" version="1.1" viewBox="0 0 193 669" width="193px" zoomAndPan="magnify"><title>US11 - Domain Model</title><defs/><g><g class="title" data-source-line="3"><text fill="#000000" font-family="sans-serif" font-size="14" font-weight="bold" lengthAdjust="spacing" textLength="143.1309" x="18.0791" y="25.1074">US11 - Domain Model</text></g><!--class Person--><g class="entity" data-entity="Person" data-source-line="5" data-uid="ent0002" id="entity_Person"><rect fill="#F1F1F1" height="103.8633" rx="2.5" ry="2.5" style="stroke:#181818;stroke-width:0.5;" width="128.751" x="32" y="46.6211"/><ellipse cx="70.5767" cy="62.6211" fill="#ADD1B2" rx="11" ry="11" style="stroke:#181818;stroke-width:1;"/><path d="M73.3423,58.4961 Q73.4985,58.2773 73.686,58.168 Q73.8735,58.0586 74.0923,58.0586 Q74.4673,58.0586 74.7017,58.3242 Q74.936,58.5742 74.936,59.1836 L74.936,60.6367 Q74.936,61.2461 74.7017,61.5117 Q74.4673,61.7773 74.0923,61.7773 Q73.7485,61.7773 73.5454,61.5742 Q73.3423,61.3867 73.2329,60.8711 Q73.186,60.5117 72.9985,60.3242 Q72.6704,59.9492 72.061,59.7305 Q71.4517,59.5117 70.8267,59.5117 Q70.061,59.5117 69.4204,59.8398 Q68.7954,60.168 68.2954,60.918 Q67.811,61.668 67.811,62.6992 L67.811,63.793 Q67.811,65.0273 68.7017,65.8555 Q69.5923,66.668 71.186,66.668 Q72.1235,66.668 72.7798,66.418 Q73.1704,66.2617 73.5923,65.8242 Q73.8579,65.5586 73.9985,65.4805 Q74.1548,65.4023 74.3579,65.4023 Q74.686,65.4023 74.936,65.668 Q75.2017,65.918 75.2017,66.2617 Q75.2017,66.6055 74.8579,67.0117 Q74.3579,67.5898 73.561,67.918 Q72.4829,68.3711 71.186,68.3711 Q69.6704,68.3711 68.4673,67.7461 Q67.4829,67.2461 66.7954,66.1836 Q66.1079,65.1055 66.1079,63.8242 L66.1079,62.668 Q66.1079,61.3398 66.7173,60.1992 Q67.3423,59.043 68.436,58.4336 Q69.5298,57.8086 70.7642,57.8086 Q71.4985,57.8086 72.1392,57.9805 Q72.7954,58.1367 73.3423,58.4961 Z " fill="#000000"/><text fill="#000000" font-family="sans-serif" font-size="14" lengthAdjust="spacing" textLength="44.3584" x="89.8159" y="68.418">Person</text><line style="stroke:#181818;stroke-width:0.5;" x1="33" x2="159.751" y1="78.6211" y2="78.6211"/><text fill="#000000" font-family="sans-serif" font-size="14" lengthAdjust="spacing" textLength="79.3721" x="38" y="97.7285">name: String</text><text fill="#000000" font-family="sans-serif" font-size="14" lengthAdjust="spacing" textLength="116.751" x="38" y="116.3496">phone_number: int</text><text fill="#000000" font-family="sans-serif" font-size="14" lengthAdjust="spacing" textLength="77.8066" x="38" y="134.9707">email: String</text><line style="stroke:#181818;stroke-width:0.5;" x1="33" x2="159.751" y1="142.4844" y2="142.4844"/></g><!--class DGSAdministrator--><g class="entity" data-entity="DGSAdministrator" data-source-line="11" data-uid="ent0003" id="entity_DGSAdministrator"><rect fill="#F1F1F1" height="66.6211" rx="2.5" ry="2.5" style="stroke:#181818;stroke-width:0.5;" width="144.8066" x="24" y="211.6211"/><ellipse cx="39" cy="227.6211" fill="#ADD1B2" rx="11" ry="11" style="stroke:#181818;stroke-width:1;"/><path d="M41.7656,223.4961 Q41.9219,223.2773 42.1094,223.168 Q42.2969,223.0586 42.5156,223.0586 Q42.8906,223.0586 43.125,223.3242 Q43.3594,223.5742 43.3594,224.1836 L43.3594,225.6367 Q43.3594,226.2461 43.125,226.5117 Q42.8906,226.7773 42.5156,226.7773 Q42.1719,226.7773 41.9688,226.5742 Q41.7656,226.3867 41.6563,225.8711 Q41.6094,225.5117 41.4219,225.3242 Q41.0938,224.9492 40.4844,224.7305 Q39.875,224.5117 39.25,224.5117 Q38.4844,224.5117 37.8438,224.8398 Q37.2188,225.168 36.7188,225.918 Q36.2344,226.668 36.2344,227.6992 L36.2344,228.793 Q36.2344,230.0273 37.125,230.8555 Q38.0156,231.668 39.6094,231.668 Q40.5469,231.668 41.2031,231.418 Q41.5938,231.2617 42.0156,230.8242 Q42.2813,230.5586 42.4219,230.4805 Q42.5781,230.4023 42.7813,230.4023 Q43.1094,230.4023 43.3594,230.668 Q43.625,230.918 43.625,231.2617 Q43.625,231.6055 43.2813,232.0117 Q42.7813,232.5898 41.9844,232.918 Q40.9063,233.3711 39.6094,233.3711 Q38.0938,233.3711 36.8906,232.7461 Q35.9063,232.2461 35.2188,231.1836 Q34.5313,230.1055 34.5313,228.8242 L34.5313,227.668 Q34.5313,226.3398 35.1406,225.1992 Q35.7656,224.043 36.8594,223.4336 Q37.9531,222.8086 39.1875,222.8086 Q39.9219,222.8086 40.5625,222.9805 Q41.2188,223.1367 41.7656,223.4961 Z " fill="#000000"/><text fill="#000000" font-family="sans-serif" font-size="14" lengthAdjust="spacing" textLength="112.8066" x="53" y="233.418">DGSAdministrator</text><line style="stroke:#181818;stroke-width:0.5;" x1="25" x2="167.8066" y1="243.6211" y2="243.6211"/><text fill="#000000" font-family="sans-serif" font-size="14" lengthAdjust="spacing" textLength="79.3789" x="30" y="262.7285">id_admin: int</text><line style="stroke:#181818;stroke-width:0.5;" x1="25" x2="167.8066" y1="270.2422" y2="270.2422"/></g><!--class Vaccine--><g class="entity" data-entity="Vaccine" data-source-line="15" data-uid="ent0004" id="entity_Vaccine"><rect fill="#F1F1F1" height="141.1055" rx="2.5" ry="2.5" style="stroke:#181818;stroke-width:0.5;" width="156.751" x="18" y="521.6211"/><ellipse cx="67.2222" cy="537.6211" fill="#ADD1B2" rx="11" ry="11" style="stroke:#181818;stroke-width:1;"/><path d="M69.9878,533.4961 Q70.144,533.2773 70.3315,533.168 Q70.519,533.0586 70.7378,533.0586 Q71.1128,533.0586 71.3472,533.3242 Q71.5815,533.5742 71.5815,534.1836 L71.5815,535.6367 Q71.5815,536.2461 71.3472,536.5117 Q71.1128,536.7773 70.7378,536.7773 Q70.394,536.7773 70.1909,536.5742 Q69.9878,536.3867 69.8784,535.8711 Q69.8315,535.5117 69.644,535.3242 Q69.3159,534.9492 68.7065,534.7305 Q68.0972,534.5117 67.4722,534.5117 Q66.7065,534.5117 66.0659,534.8398 Q65.4409,535.168 64.9409,535.918 Q64.4565,536.668 64.4565,537.6992 L64.4565,538.793 Q64.4565,540.0273 65.3472,540.8555 Q66.2378,541.668 67.8315,541.668 Q68.769,541.668 69.4253,541.418 Q69.8159,541.2617 70.2378,540.8242 Q70.5034,540.5586 70.644,540.4805 Q70.8003,540.4023 71.0034,540.4023 Q71.3315,540.4023 71.5815,540.668 Q71.8472,540.918 71.8472,541.2617 Q71.8472,541.6055 71.5034,542.0117 Q71.0034,542.5898 70.2065,542.918 Q69.1284,543.3711 67.8315,543.3711 Q66.3159,543.3711 65.1128,542.7461 Q64.1284,542.2461 63.4409,541.1836 Q62.7534,540.1055 62.7534,538.8242 L62.7534,537.668 Q62.7534,536.3398 63.3628,535.1992 Q63.9878,534.043 65.0815,533.4336 Q66.1753,532.8086 67.4097,532.8086 Q68.144,532.8086 68.7847,532.9805 Q69.4409,533.1367 69.9878,533.4961 Z " fill="#000000"/><text fill="#000000" font-family="sans-serif" font-size="14" lengthAdjust="spacing" textLength="49.8066" x="87.7222" y="543.418">Vaccine</text><line style="stroke:#181818;stroke-width:0.5;" x1="19" x2="173.751" y1="553.6211" y2="553.6211"/><text fill="#000000" font-family="sans-serif" font-size="14" lengthAdjust="spacing" textLength="79.3721" x="24" y="572.7285">name: String</text><text fill="#000000" font-family="sans-serif" font-size="14" lengthAdjust="spacing" textLength="80.1582" x="24" y="591.3496">brand: String</text><text fill="#000000" font-family="sans-serif" font-size="14" lengthAdjust="spacing" textLength="144.751" x="24" y="609.9707">technologyUsed: String</text><text fill="#000000" font-family="sans-serif" font-size="14" lengthAdjust="spacing" textLength="108.9307" x="24" y="628.5918">lotNumber: String</text><text fill="#000000" font-family="sans-serif" font-size="14" lengthAdjust="spacing" textLength="92.6064" x="24" y="647.2129">disease: String</text><line style="stroke:#181818;stroke-width:0.5;" x1="19" x2="173.751" y1="654.7266" y2="654.7266"/></g><!--class VaccineRegistration--><g class="entity" data-entity="VaccineRegistration" data-source-line="23" data-uid="ent0005" id="entity_VaccineRegistration"><rect fill="#F1F1F1" height="85.2422" rx="2.5" ry="2.5" style="stroke:#181818;stroke-width:0.5;" width="179.2891" x="7" y="357.6211"/><ellipse cx="32.2507" cy="373.6211" fill="#ADD1B2" rx="11" ry="11" style="stroke:#181818;stroke-width:1;"/><path d="M35.0163,369.4961 Q35.1726,369.2773 35.3601,369.168 Q35.5476,369.0586 35.7663,369.0586 Q36.1413,369.0586 36.3757,369.3242 Q36.6101,369.5742 36.6101,370.1836 L36.6101,371.6367 Q36.6101,372.2461 36.3757,372.5117 Q36.1413,372.7773 35.7663,372.7773 Q35.4226,372.7773 35.2194,372.5742 Q35.0163,372.3867 34.9069,371.8711 Q34.8601,371.5117 34.6726,371.3242 Q34.3444,370.9492 33.7351,370.7305 Q33.1257,370.5117 32.5007,370.5117 Q31.7351,370.5117 31.0944,370.8398 Q30.4694,371.168 29.9694,371.918 Q29.4851,372.668 29.4851,373.6992 L29.4851,374.793 Q29.4851,376.0273 30.3757,376.8555 Q31.2663,377.668 32.8601,377.668 Q33.7976,377.668 34.4538,377.418 Q34.8444,377.2617 35.2663,376.8242 Q35.5319,376.5586 35.6726,376.4805 Q35.8288,376.4023 36.0319,376.4023 Q36.3601,376.4023 36.6101,376.668 Q36.8757,376.918 36.8757,377.2617 Q36.8757,377.6055 36.5319,378.0117 Q36.0319,378.5898 35.2351,378.918 Q34.1569,379.3711 32.8601,379.3711 Q31.3444,379.3711 30.1413,378.7461 Q29.1569,378.2461 28.4694,377.1836 Q27.7819,376.1055 27.7819,374.8242 L27.7819,373.668 Q27.7819,372.3398 28.3913,371.1992 Q29.0163,370.043 30.1101,369.4336 Q31.2038,368.8086 32.4382,368.8086 Q33.1726,368.8086 33.8132,368.9805 Q34.4694,369.1367 35.0163,369.4961 Z " fill="#000000"/><text fill="#000000" font-family="sans-serif" font-size="14" lengthAdjust="spacing" textLength="124.5098" x="48.5286" y="379.418">VaccineRegistration</text><line style="stroke:#181818;stroke-width:0.5;" x1="8" x2="185.2891" y1="389.6211" y2="389.6211"/><text fill="#000000" font-family="sans-serif" font-size="14" lengthAdjust="spacing" textLength="167.2891" x="13" y="408.7285">registrationDate: DateTime</text><text fill="#000000" font-family="sans-serif" font-size="14" lengthAdjust="spacing" textLength="81.7031" x="13" y="427.3496">status: String</text><line style="stroke:#181818;stroke-width:0.5;" x1="8" x2="185.2891" y1="434.8633" y2="434.8633"/></g><!--reverse link Person to DGSAdministrator--><g class="link" data-entity-1="Person" data-entity-2="DGSAdministrator" data-source-line="28" data-uid="lnk6" id="link_Person_DGSAdministrator"><path codeLine="28" d="M96.5,168.9711 C96.5,189.0911 96.5,193.5711 96.5,211.4111" fill="none" id="Person-backto-DGSAdministrator" style="stroke:#181818;stroke-width:1;"/><polygon fill="none" points="96.5,150.9711,90.5,168.9711,102.5,168.9711,96.5,150.9711" style="stroke:#181818;stroke-width:1;"/></g><!--link DGSAdministrator to VaccineRegistration--><g class="link" data-entity-1="DGSAdministrator" data-entity-2="VaccineRegistration" data-source-line="29" data-uid="lnk7" id="link_DGSAdministrator_VaccineRegistration"><path codeLine="29" d="M96.5,278.9411 C96.5,301.9511 96.5,332.8811 96.5,357.6011" fill="none" id="DGSAdministrator-VaccineRegistration" style="stroke:#181818;stroke-width:1;"/><text fill="#000000" font-family="sans-serif" font-size="13" lengthAdjust="spacing" textLength="51.2891" x="97.5" y="323.6494">performs</text><text fill="#000000" font-family="sans-serif" font-size="13" lengthAdjust="spacing" textLength="7.23" x="88.9348" y="300.3007">1</text><text fill="#000000" font-family="sans-serif" font-size="13" lengthAdjust="spacing" textLength="19.5127" x="76.0038" y="346.502">1..*</text></g><!--link VaccineRegistration to Vaccine--><g class="link" data-entity-1="VaccineRegistration" data-entity-2="Vaccine" data-source-line="30" data-uid="lnk8" id="link_VaccineRegistration_Vaccine"><path codeLine="30" d="M96.5,442.8211 C96.5,465.8711 96.5,495.1011 96.5,521.5211" fill="none" id="VaccineRegistration-Vaccine" style="stroke:#181818;stroke-width:1;"/><text fill="#000000" font-family="sans-serif" font-size="13" lengthAdjust="spacing" textLength="48.4009" x="97.5" y="487.6494">refersTo</text><text fill="#000000" font-family="sans-serif" font-size="13" lengthAdjust="spacing" textLength="19.5127" x="76.0038" y="465.0133">1..*</text><text fill="#000000" font-family="sans-serif" font-size="13" lengthAdjust="spacing" textLength="7.23" x="89.1638" y="510.4018">1</text></g><!--SRC=[TL0zQyCm4DtrAuINGi4sNasNWg5JGwcJhk5YN-m3wMIayr3Q_lSgZciSd6hGyBxktJtq8aCeytmmm39QapNEves14DAMeFDWbH8IW_fG5uLETUKi4EjNrw9HQbBgD_J1iVvIEZu6YwMknHDt4p3qZl78epsXBpMnJ2Z66BFeVlwYgfVwkRN45CI3E3-7Kdk42tprB-eFQ1fY_6_ooGEtDuXWqxCphliy1BobZ9FTt765jXGG0cwBpgFViRjMfUK0VWLL8D5x-VTaSQA3W8nX7JYVx-axJJVxgyr1aYBHKPWKMVQOtArHwW7zsNaRr3rwTauPIq0qUJp78dkdVW40]--></g></svg>