<svg xmlns="http://www.w3.org/2000/svg" xmlns:xlink="http://www.w3.org/1999/xlink" contentStyleType="text/css" data-diagram-type="SEQUENCE" height="351px" preserveAspectRatio="none" style="width:327px;height:351px;background:#FFFFFF;" version="1.1" viewBox="0 0 327 351" width="327px" zoomAndPan="magnify"><title>US11 - System Sequence Diagram</title><defs/><g><text fill="#000000" font-family="sans-serif" font-size="14" font-weight="bold" lengthAdjust="spacing" textLength="227.2061" x="49.2737" y="30.1074">US11 - System Sequence Diagram</text><g><title>Admnistrator</title><rect fill="#FFFFFF" height="126.1641" style="stroke:#181818;stroke-width:1;" width="10" x="42.6792" y="133.2422"/></g><g><title>.System</title><rect fill="#FFFFFF" height="31.291" style="stroke:#181818;stroke-width:1;" width="10" x="284.4707" y="156.5332"/></g><g><title>.System</title><rect fill="#FFFFFF" height="31.291" style="stroke:#181818;stroke-width:1;" width="10" x="284.4707" y="219.1152"/></g><g><title>Admnistrator</title><rect fill="#000000" fill-opacity="0.00000" height="145.1641" width="8" x="43.6792" y="123.2422"/><line style="stroke:#181818;stroke-width:0.5;stroke-dasharray:5,5;" x1="47" x2="47" y1="123.2422" y2="268.4063"/></g><g><title>.System</title><rect fill="#000000" fill-opacity="0.00000" height="145.1641" width="8" x="285.4707" y="123.2422"/><line style="stroke:#181818;stroke-width:0.5;stroke-dasharray:5,5;" x1="289.188" x2="289.188" y1="123.2422" y2="268.4063"/></g><g class="participant participant-head" data-participant="Admin"><text fill="#000000" font-family="sans-serif" font-size="14" lengthAdjust="spacing" textLength="79.3584" x="5" y="119.7285">Admnistrator</text><ellipse cx="47.6792" cy="53.1211" fill="#E2E2F0" rx="8" ry="8" style="stroke:#181818;stroke-width:0.5;"/><path d="M47.6792,61.1211 L47.6792,88.1211 M34.6792,69.1211 L60.6792,69.1211 M47.6792,88.1211 L34.6792,103.1211 M47.6792,88.1211 L60.6792,103.1211" fill="none" style="stroke:#181818;stroke-width:0.5;"/></g><g class="participant participant-tail" data-participant="Admin"><text fill="#000000" font-family="sans-serif" font-size="14" lengthAdjust="spacing" textLength="79.3584" x="5" y="282.5137">Admnistrator</text><ellipse cx="47.6792" cy="294.5273" fill="#E2E2F0" rx="8" ry="8" style="stroke:#181818;stroke-width:0.5;"/><path d="M47.6792,302.5273 L47.6792,329.5273 M34.6792,310.5273 L60.6792,310.5273 M47.6792,329.5273 L34.6792,344.5273 M47.6792,329.5273 L60.6792,344.5273" fill="none" style="stroke:#181818;stroke-width:0.5;"/></g><g class="participant participant-head" data-participant="System"><rect fill="#E2E2F0" height="32.6211" rx="2.5" ry="2.5" style="stroke:#181818;stroke-width:0.5;" width="64.5654" x="257.188" y="89.6211"/><text fill="#000000" font-family="sans-serif" font-size="14" lengthAdjust="spacing" textLength="50.5654" x="264.188" y="111.7285">:System</text></g><g class="participant participant-tail" data-participant="System"><rect fill="#E2E2F0" height="32.6211" rx="2.5" ry="2.5" style="stroke:#181818;stroke-width:0.5;" width="64.5654" x="257.188" y="267.4063"/><text fill="#000000" font-family="sans-serif" font-size="14" lengthAdjust="spacing" textLength="50.5654" x="264.188" y="289.5137">:System</text></g><g><title>Admnistrator</title><rect fill="#FFFFFF" height="126.1641" style="stroke:#181818;stroke-width:1;" width="10" x="42.6792" y="133.2422"/></g><g><title>.System</title><rect fill="#FFFFFF" height="31.291" style="stroke:#181818;stroke-width:1;" width="10" x="284.4707" y="156.5332"/></g><g><title>.System</title><rect fill="#FFFFFF" height="31.291" style="stroke:#181818;stroke-width:1;" width="10" x="284.4707" y="219.1152"/></g><g class="message" data-participant-1="Admin" data-participant-2="System"><polygon fill="#181818" points="272.4707,152.5332,282.4707,156.5332,272.4707,160.5332,276.4707,156.5332" style="stroke:#181818;stroke-width:1;"/><line style="stroke:#181818;stroke-width:1;" x1="52.6792" x2="278.4707" y1="156.5332" y2="156.5332"/><text fill="#000000" font-family="sans-serif" font-size="13" font-weight="bold" lengthAdjust="spacing" textLength="7.23" x="59.6792" y="151.2705">1</text><text fill="#000000" font-family="sans-serif" font-size="13" lengthAdjust="spacing" textLength="178.4771" x="70.9092" y="151.2705">Requests to register a vaccine.</text></g><g class="message" data-participant-1="System" data-participant-2="Admin"><polygon fill="#181818" points="63.6792,183.8242,53.6792,187.8242,63.6792,191.8242,59.6792,187.8242" style="stroke:#181818;stroke-width:1;"/><line style="stroke:#181818;stroke-width:1;stroke-dasharray:2,2;" x1="57.6792" x2="288.4707" y1="187.8242" y2="187.8242"/><text fill="#000000" font-family="sans-serif" font-size="13" font-weight="bold" lengthAdjust="spacing" textLength="7.23" x="69.6792" y="182.5615">2</text><text fill="#000000" font-family="sans-serif" font-size="13" lengthAdjust="spacing" textLength="196.5615" x="80.9092" y="182.5615">Requests for the vaccination data.</text></g><g class="message" data-participant-1="Admin" data-participant-2="System"><polygon fill="#181818" points="272.4707,215.1152,282.4707,219.1152,272.4707,223.1152,276.4707,219.1152" style="stroke:#181818;stroke-width:1;"/><line style="stroke:#181818;stroke-width:1;" x1="52.6792" x2="278.4707" y1="219.1152" y2="219.1152"/><text fill="#000000" font-family="sans-serif" font-size="13" font-weight="bold" lengthAdjust="spacing" textLength="7.23" x="59.6792" y="213.8525">3</text><text fill="#000000" font-family="sans-serif" font-size="13" lengthAdjust="spacing" textLength="148.1353" x="70.9092" y="213.8525">Submits vaccination data.</text></g><g class="message" data-participant-1="System" data-participant-2="Admin"><polygon fill="#181818" points="63.6792,246.4063,53.6792,250.4063,63.6792,254.4063,59.6792,250.4063" style="stroke:#181818;stroke-width:1;"/><line style="stroke:#181818;stroke-width:1;stroke-dasharray:2,2;" x1="57.6792" x2="288.4707" y1="250.4063" y2="250.4063"/><text fill="#000000" font-family="sans-serif" font-size="13" font-weight="bold" lengthAdjust="spacing" textLength="7.23" x="69.6792" y="245.1436">4</text><text fill="#000000" font-family="sans-serif" font-size="13" lengthAdjust="spacing" textLength="148.8525" x="80.9092" y="245.1436">Registrition of the vaccine</text></g><!--SRC=[ROv1QiCm44NtEiN7cwvaawqfXK9FK9C3JEH9Cc19hZGAzFPLP1SCxKeQpVlwx-MkkkPn6DQ5WXQ_z2xw8VDNuU3OpaAtHDuO5LqOm7awdM0nVMTbZsddyF7BKT58JkL1oeYXpQ7u2wUwSneJklVP1ycQg4uTAAC-I30h9HKdQzL0Dsu5RRrTMtpxTkDDEs3VTc34vzCcQuP69BxL3auWFCWv2ToRNThMICiU4jSgfdVUMLA90JCfzV_KJENYfMR-iXlwQkr1wQcHf47nUkXWymC0]--></g></svg>