<svg xmlns="http://www.w3.org/2000/svg" xmlns:xlink="http://www.w3.org/1999/xlink" contentStyleType="text/css" data-diagram-type="SEQUENCE" height="495px" preserveAspectRatio="none" style="width:745px;height:495px;background:#FFFFFF;" version="1.1" viewBox="0 0 745 495" width="745px" zoomAndPan="magnify"><title>US11 - Sequence Diagram</title><defs/><g><text fill="#000000" font-family="sans-serif" font-size="14" font-weight="bold" lengthAdjust="spacing" textLength="173.5098" x="286.8086" y="30.1074">US11 - Sequence Diagram</text><rect fill="none" height="161.0859" style="stroke:#000000;stroke-width:1.5;" width="728.127" x="10" y="234.1152"/><g><title>DGS Administrator</title><rect fill="#000000" fill-opacity="0.00000" height="288.959" width="8" x="77.3481" y="123.2422"/><line style="stroke:#181818;stroke-width:0.5;stroke-dasharray:5,5;" x1="81" x2="81" y1="123.2422" y2="412.2012"/></g><g><title>.System</title><rect fill="#000000" fill-opacity="0.00000" height="288.959" width="8" x="493.9072" y="123.2422"/><line style="stroke:#181818;stroke-width:0.5;stroke-dasharray:5,5;" x1="497.6245" x2="497.6245" y1="123.2422" y2="412.2012"/></g><g><title>.Vaccine</title><rect fill="#000000" fill-opacity="0.00000" height="288.959" width="8" x="690.2788" y="123.2422"/><line style="stroke:#181818;stroke-width:0.5;stroke-dasharray:5,5;" x1="693.4307" x2="693.4307" y1="123.2422" y2="412.2012"/></g><g class="participant participant-head" data-participant="Admin"><text fill="#000000" font-family="sans-serif" font-size="14" lengthAdjust="spacing" textLength="116.6963" x="20" y="119.7285">DGS Administrator</text><ellipse cx="81.3481" cy="53.1211" fill="#E2E2F0" rx="8" ry="8" style="stroke:#181818;stroke-width:0.5;"/><path d="M81.3481,61.1211 L81.3481,88.1211 M68.3481,69.1211 L94.3481,69.1211 M81.3481,88.1211 L68.3481,103.1211 M81.3481,88.1211 L94.3481,103.1211" fill="none" style="stroke:#181818;stroke-width:0.5;"/></g><g class="participant participant-tail" data-participant="Admin"><text fill="#000000" font-family="sans-serif" font-size="14" lengthAdjust="spacing" textLength="116.6963" x="20" y="426.3086">DGS Administrator</text><ellipse cx="81.3481" cy="438.3223" fill="#E2E2F0" rx="8" ry="8" style="stroke:#181818;stroke-width:0.5;"/><path d="M81.3481,446.3223 L81.3481,473.3223 M68.3481,454.3223 L94.3481,454.3223 M81.3481,473.3223 L68.3481,488.3223 M81.3481,473.3223 L94.3481,488.3223" fill="none" style="stroke:#181818;stroke-width:0.5;"/></g><g class="participant participant-head" data-participant="System"><rect fill="#E2E2F0" height="32.6211" rx="2.5" ry="2.5" style="stroke:#181818;stroke-width:0.5;" width="64.5654" x="465.6245" y="89.6211"/><text fill="#000000" font-family="sans-serif" font-size="14" lengthAdjust="spacing" textLength="50.5654" x="472.6245" y="111.7285">:System</text></g><g class="participant participant-tail" data-participant="System"><rect fill="#E2E2F0" height="32.6211" rx="2.5" ry="2.5" style="stroke:#181818;stroke-width:0.5;" width="64.5654" x="465.6245" y="411.2012"/><text fill="#000000" font-family="sans-serif" font-size="14" lengthAdjust="spacing" textLength="50.5654" x="472.6245" y="433.3086">:System</text></g><g class="participant participant-head" data-participant="Vaccine"><rect fill="#E2E2F0" height="32.6211" rx="2.5" ry="2.5" style="stroke:#181818;stroke-width:0.5;" width="67.6963" x="660.4307" y="89.6211"/><text fill="#000000" font-family="sans-serif" font-size="14" lengthAdjust="spacing" textLength="53.6963" x="667.4307" y="111.7285">:Vaccine</text></g><g class="participant participant-tail" data-participant="Vaccine"><rect fill="#E2E2F0" height="32.6211" rx="2.5" ry="2.5" style="stroke:#181818;stroke-width:0.5;" width="67.6963" x="660.4307" y="411.2012"/><text fill="#000000" font-family="sans-serif" font-size="14" lengthAdjust="spacing" textLength="53.6963" x="667.4307" y="433.3086">:Vaccine</text></g><g class="message" data-participant-1="Admin" data-participant-2="System"><polygon fill="#181818" points="485.9072,152.5332,495.9072,156.5332,485.9072,160.5332,489.9072,156.5332" style="stroke:#181818;stroke-width:1;"/><line style="stroke:#181818;stroke-width:1;" x1="81.3481" x2="491.9072" y1="156.5332" y2="156.5332"/><text fill="#000000" font-family="sans-serif" font-size="13" font-weight="bold" lengthAdjust="spacing" textLength="7.23" x="88.3481" y="151.2705">1</text><text fill="#000000" font-family="sans-serif" font-size="13" lengthAdjust="spacing" textLength="202.3252" x="99.5781" y="151.2705">Requests to register a new vaccine</text></g><g class="message" data-participant-1="System" data-participant-2="Admin"><polygon fill="#181818" points="92.3481,183.8242,82.3481,187.8242,92.3481,191.8242,88.3481,187.8242" style="stroke:#181818;stroke-width:1;"/><line style="stroke:#181818;stroke-width:1;stroke-dasharray:2,2;" x1="86.3481" x2="496.9072" y1="187.8242" y2="187.8242"/><text fill="#000000" font-family="sans-serif" font-size="13" font-weight="bold" lengthAdjust="spacing" textLength="7.23" x="98.3481" y="182.5615">2</text><text fill="#000000" font-family="sans-serif" font-size="13" lengthAdjust="spacing" textLength="216.0298" x="109.5781" y="182.5615">Displays the vaccine registration form</text></g><g class="message" data-participant-1="Admin" data-participant-2="System"><polygon fill="#181818" points="485.9072,215.1152,495.9072,219.1152,485.9072,223.1152,489.9072,219.1152" style="stroke:#181818;stroke-width:1;"/><line style="stroke:#181818;stroke-width:1;" x1="81.3481" x2="491.9072" y1="219.1152" y2="219.1152"/><text fill="#000000" font-family="sans-serif" font-size="13" font-weight="bold" lengthAdjust="spacing" textLength="7.23" x="88.3481" y="213.8525">3</text><text fill="#000000" font-family="sans-serif" font-size="13" lengthAdjust="spacing" textLength="163.2998" x="99.5781" y="213.8525">Submits new vaccine details</text></g><path d="M10,234.1152 L70.1709,234.1152 L70.1709,243.4063 L60.1709,253.4063 L10,253.4063 L10,234.1152" fill="#EEEEEE" style="stroke:#000000;stroke-width:1.5;"/><rect fill="none" height="161.0859" style="stroke:#000000;stroke-width:1.5;" width="728.127" x="10" y="234.1152"/><text fill="#000000" font-family="sans-serif" font-size="13" font-weight="bold" lengthAdjust="spacing" textLength="15.1709" x="25" y="249.1436">alt</text><text fill="#000000" font-family="sans-serif" font-size="11" font-weight="bold" lengthAdjust="spacing" textLength="60.5107" x="85.1709" y="247.9854">[Valid Data]</text><g class="message" data-participant-1="System" data-participant-2="Vaccine"><polygon fill="#181818" points="682.2788,272.6973,692.2788,276.6973,682.2788,280.6973,686.2788,276.6973" style="stroke:#181818;stroke-width:1;"/><line style="stroke:#181818;stroke-width:1;" x1="497.9072" x2="688.2788" y1="276.6973" y2="276.6973"/><text fill="#000000" font-family="sans-serif" font-size="13" font-weight="bold" lengthAdjust="spacing" textLength="7.23" x="504.9072" y="271.4346">4</text><text fill="#000000" font-family="sans-serif" font-size="13" lengthAdjust="spacing" textLength="88.8799" x="516.1372" y="271.4346">Create Vaccine</text></g><g class="message" data-participant-1="Vaccine" data-participant-2="System"><polygon fill="#181818" points="508.9072,303.9883,498.9072,307.9883,508.9072,311.9883,504.9072,307.9883" style="stroke:#181818;stroke-width:1;"/><line style="stroke:#181818;stroke-width:1;stroke-dasharray:2,2;" x1="502.9072" x2="693.2788" y1="307.9883" y2="307.9883"/><text fill="#000000" font-family="sans-serif" font-size="13" font-weight="bold" lengthAdjust="spacing" textLength="7.23" x="514.9072" y="302.7256">5</text><text fill="#000000" font-family="sans-serif" font-size="13" lengthAdjust="spacing" textLength="161.1416" x="526.1372" y="302.7256">Returns new Vaccine object</text></g><g class="message" data-participant-1="System" data-participant-2="Admin"><polygon fill="#181818" points="92.3481,335.2793,82.3481,339.2793,92.3481,343.2793,88.3481,339.2793" style="stroke:#181818;stroke-width:1;"/><line style="stroke:#181818;stroke-width:1;stroke-dasharray:2,2;" x1="86.3481" x2="496.9072" y1="339.2793" y2="339.2793"/><text fill="#000000" font-family="sans-serif" font-size="13" font-weight="bold" lengthAdjust="spacing" textLength="7.23" x="98.3481" y="334.0166">6</text><text fill="#000000" font-family="sans-serif" font-size="13" lengthAdjust="spacing" textLength="381.3291" x="109.5781" y="334.0166">Displays confirmation message: "Vaccine registered successfully!"</text></g><line style="stroke:#000000;stroke-width:1;stroke-dasharray:2,2;" x1="10" x2="738.127" y1="348.2793" y2="348.2793"/><text fill="#000000" font-family="sans-serif" font-size="11" font-weight="bold" lengthAdjust="spacing" textLength="69.0669" x="15" y="360.1494">[Invalid Data]</text><g class="message" data-participant-1="System" data-participant-2="Admin"><polygon fill="#181818" points="92.3481,383.2012,82.3481,387.2012,92.3481,391.2012,88.3481,387.2012" style="stroke:#181818;stroke-width:1;"/><line style="stroke:#181818;stroke-width:1;stroke-dasharray:2,2;" x1="86.3481" x2="496.9072" y1="387.2012" y2="387.2012"/><text fill="#000000" font-family="sans-serif" font-size="13" font-weight="bold" lengthAdjust="spacing" textLength="7.23" x="98.3481" y="381.9385">7</text><text fill="#000000" font-family="sans-serif" font-size="13" lengthAdjust="spacing" textLength="136.5444" x="109.5781" y="381.9385">Displays error message</text></g><!--SRC=[RL7BJiCm4BpxAvPSE8Mgrnmg8IeXhaJqldMsnSYFi5uNzU_P9WvGrDlACxCpixv_5nbpjrgD7gEKu1zi2gjCduMYfNPmU6GCneWJJm3mrg_Nq49V2R2j12oIOWbxOcFGIc9ejiyzF0x1HPU5KPyQm3o_c15Pd7MZUaBJzUSi52Pu7l_XExJMHPe8TJPcMWJjfaewUBraof914Z0TrPKO429zmQcAPYgqgfhadURFsloiedTQQ5MjcLsAS4WSRhZrPH-SclrP3mC9Ef-Ddi2B9lLkW2qA6ZqSBDwRfK87Jqmez5Ffmghp5F6tc1IEizM2f_q7MJ5Ncs-qiYaU78UvIQ2SyQY-pUwgA34Da8krYX-Az-Uxnf3F12_nTBl33ITYra-l5eRYOBu1]--></g></svg>