<svg xmlns="http://www.w3.org/2000/svg" xmlns:xlink="http://www.w3.org/1999/xlink" contentStyleType="text/css" data-diagram-type="CLASS" height="524px" preserveAspectRatio="none" style="width:195px;height:524px;background:#FFFFFF;" version="1.1" viewBox="0 0 195 524" width="195px" zoomAndPan="magnify"><title>US11 - Class Diagram</title><defs/><g><g class="title" data-source-line="3"><text fill="#000000" font-family="sans-serif" font-size="14" font-weight="bold" lengthAdjust="spacing" textLength="144.7305" x="18.4482" y="25.1074">US11 - Class Diagram</text></g><!--class DGSAdminUser--><g class="entity" data-entity="DGSAdminUser" data-source-line="5" data-uid="ent0002" id="entity_DGSAdminUser"><rect fill="#F1F1F1" height="66.6211" rx="2.5" ry="2.5" style="stroke:#181818;stroke-width:0.5;" width="131.5791" x="32" y="211.6211"/><ellipse cx="47" cy="227.6211" fill="#ADD1B2" rx="11" ry="11" style="stroke:#181818;stroke-width:1;"/><path d="M49.7656,223.4961 Q49.9219,223.2773 50.1094,223.168 Q50.2969,223.0586 50.5156,223.0586 Q50.8906,223.0586 51.125,223.3242 Q51.3594,223.5742 51.3594,224.1836 L51.3594,225.6367 Q51.3594,226.2461 51.125,226.5117 Q50.8906,226.7773 50.5156,226.7773 Q50.1719,226.7773 49.9688,226.5742 Q49.7656,226.3867 49.6563,225.8711 Q49.6094,225.5117 49.4219,225.3242 Q49.0938,224.9492 48.4844,224.7305 Q47.875,224.5117 47.25,224.5117 Q46.4844,224.5117 45.8438,224.8398 Q45.2188,225.168 44.7188,225.918 Q44.2344,226.668 44.2344,227.6992 L44.2344,228.793 Q44.2344,230.0273 45.125,230.8555 Q46.0156,231.668 47.6094,231.668 Q48.5469,231.668 49.2031,231.418 Q49.5938,231.2617 50.0156,230.8242 Q50.2813,230.5586 50.4219,230.4805 Q50.5781,230.4023 50.7813,230.4023 Q51.1094,230.4023 51.3594,230.668 Q51.625,230.918 51.625,231.2617 Q51.625,231.6055 51.2813,232.0117 Q50.7813,232.5898 49.9844,232.918 Q48.9063,233.3711 47.6094,233.3711 Q46.0938,233.3711 44.8906,232.7461 Q43.9063,232.2461 43.2188,231.1836 Q42.5313,230.1055 42.5313,228.8242 L42.5313,227.668 Q42.5313,226.3398 43.1406,225.1992 Q43.7656,224.043 44.8594,223.4336 Q45.9531,222.8086 47.1875,222.8086 Q47.9219,222.8086 48.5625,222.9805 Q49.2188,223.1367 49.7656,223.4961 Z " fill="#000000"/><text fill="#000000" font-family="sans-serif" font-size="14" lengthAdjust="spacing" textLength="99.5791" x="61" y="233.418">DGSAdminUser</text><line style="stroke:#181818;stroke-width:0.5;" x1="33" x2="162.5791" y1="243.6211" y2="243.6211"/><rect fill="none" height="6" style="stroke:#C82930;stroke-width:1;" width="6" x="40" y="255.4316"/><text fill="#000000" font-family="sans-serif" font-size="14" lengthAdjust="spacing" textLength="79.3789" x="52" y="262.7285">admin_id: int</text><line style="stroke:#181818;stroke-width:0.5;" x1="33" x2="162.5791" y1="270.2422" y2="270.2422"/></g><!--class Person--><g class="entity" data-entity="Person" data-source-line="9" data-uid="ent0003" id="entity_Person"><rect fill="#F1F1F1" height="103.8633" rx="2.5" ry="2.5" style="stroke:#181818;stroke-width:0.5;" width="142.751" x="26.5" y="46.6211"/><ellipse cx="71.4463" cy="62.6211" fill="#ADD1B2" rx="11" ry="11" style="stroke:#181818;stroke-width:1;"/><path d="M74.2119,58.4961 Q74.3682,58.2773 74.5557,58.168 Q74.7432,58.0586 74.9619,58.0586 Q75.3369,58.0586 75.5713,58.3242 Q75.8057,58.5742 75.8057,59.1836 L75.8057,60.6367 Q75.8057,61.2461 75.5713,61.5117 Q75.3369,61.7773 74.9619,61.7773 Q74.6182,61.7773 74.415,61.5742 Q74.2119,61.3867 74.1025,60.8711 Q74.0557,60.5117 73.8682,60.3242 Q73.54,59.9492 72.9307,59.7305 Q72.3213,59.5117 71.6963,59.5117 Q70.9307,59.5117 70.29,59.8398 Q69.665,60.168 69.165,60.918 Q68.6807,61.668 68.6807,62.6992 L68.6807,63.793 Q68.6807,65.0273 69.5713,65.8555 Q70.4619,66.668 72.0557,66.668 Q72.9932,66.668 73.6494,66.418 Q74.04,66.2617 74.4619,65.8242 Q74.7275,65.5586 74.8682,65.4805 Q75.0244,65.4023 75.2275,65.4023 Q75.5557,65.4023 75.8057,65.668 Q76.0713,65.918 76.0713,66.2617 Q76.0713,66.6055 75.7275,67.0117 Q75.2275,67.5898 74.4307,67.918 Q73.3525,68.3711 72.0557,68.3711 Q70.54,68.3711 69.3369,67.7461 Q68.3525,67.2461 67.665,66.1836 Q66.9775,65.1055 66.9775,63.8242 L66.9775,62.668 Q66.9775,61.3398 67.5869,60.1992 Q68.2119,59.043 69.3057,58.4336 Q70.3994,57.8086 71.6338,57.8086 Q72.3682,57.8086 73.0088,57.9805 Q73.665,58.1367 74.2119,58.4961 Z " fill="#000000"/><text fill="#000000" font-family="sans-serif" font-size="14" lengthAdjust="spacing" textLength="44.3584" x="91.9463" y="68.418">Person</text><line style="stroke:#181818;stroke-width:0.5;" x1="27.5" x2="168.251" y1="78.6211" y2="78.6211"/><polygon fill="none" points="37.5,88.4316,41.5,92.4316,37.5,96.4316,33.5,92.4316" style="stroke:#B38D22;stroke-width:1;"/><text fill="#000000" font-family="sans-serif" font-size="14" lengthAdjust="spacing" textLength="79.3721" x="46.5" y="97.7285">name: String</text><polygon fill="none" points="37.5,107.0527,41.5,111.0527,37.5,115.0527,33.5,111.0527" style="stroke:#B38D22;stroke-width:1;"/><text fill="#000000" font-family="sans-serif" font-size="14" lengthAdjust="spacing" textLength="116.751" x="46.5" y="116.3496">phone_number: int</text><polygon fill="none" points="37.5,125.6738,41.5,129.6738,37.5,133.6738,33.5,129.6738" style="stroke:#B38D22;stroke-width:1;"/><text fill="#000000" font-family="sans-serif" font-size="14" lengthAdjust="spacing" textLength="77.8066" x="46.5" y="134.9707">email: String</text><line style="stroke:#181818;stroke-width:0.5;" x1="27.5" x2="168.251" y1="142.4844" y2="142.4844"/></g><!--class Vaccine--><g class="entity" data-entity="Vaccine" data-source-line="15" data-uid="ent0004" id="entity_Vaccine"><rect fill="#F1F1F1" height="159.7266" rx="2.5" ry="2.5" style="stroke:#181818;stroke-width:0.5;" width="181.627" x="7" y="357.6211"/><ellipse cx="68.6602" cy="373.6211" fill="#ADD1B2" rx="11" ry="11" style="stroke:#181818;stroke-width:1;"/><path d="M71.4258,369.4961 Q71.582,369.2773 71.7695,369.168 Q71.957,369.0586 72.1758,369.0586 Q72.5508,369.0586 72.7852,369.3242 Q73.0195,369.5742 73.0195,370.1836 L73.0195,371.6367 Q73.0195,372.2461 72.7852,372.5117 Q72.5508,372.7773 72.1758,372.7773 Q71.832,372.7773 71.6289,372.5742 Q71.4258,372.3867 71.3164,371.8711 Q71.2695,371.5117 71.082,371.3242 Q70.7539,370.9492 70.1445,370.7305 Q69.5352,370.5117 68.9102,370.5117 Q68.1445,370.5117 67.5039,370.8398 Q66.8789,371.168 66.3789,371.918 Q65.8945,372.668 65.8945,373.6992 L65.8945,374.793 Q65.8945,376.0273 66.7852,376.8555 Q67.6758,377.668 69.2695,377.668 Q70.207,377.668 70.8633,377.418 Q71.2539,377.2617 71.6758,376.8242 Q71.9414,376.5586 72.082,376.4805 Q72.2383,376.4023 72.4414,376.4023 Q72.7695,376.4023 73.0195,376.668 Q73.2852,376.918 73.2852,377.2617 Q73.2852,377.6055 72.9414,378.0117 Q72.4414,378.5898 71.6445,378.918 Q70.5664,379.3711 69.2695,379.3711 Q67.7539,379.3711 66.5508,378.7461 Q65.5664,378.2461 64.8789,377.1836 Q64.1914,376.1055 64.1914,374.8242 L64.1914,373.668 Q64.1914,372.3398 64.8008,371.1992 Q65.4258,370.043 66.5195,369.4336 Q67.6133,368.8086 68.8477,368.8086 Q69.582,368.8086 70.2227,368.9805 Q70.8789,369.1367 71.4258,369.4961 Z " fill="#000000"/><text fill="#000000" font-family="sans-serif" font-size="14" lengthAdjust="spacing" textLength="49.8066" x="89.1602" y="379.418">Vaccine</text><line style="stroke:#181818;stroke-width:0.5;" x1="8" x2="187.627" y1="389.6211" y2="389.6211"/><rect fill="none" height="6" style="stroke:#C82930;stroke-width:1;" width="6" x="15" y="401.4316"/><text fill="#000000" font-family="sans-serif" font-size="14" lengthAdjust="spacing" textLength="83.2617" x="27" y="408.7285">name : String</text><rect fill="none" height="6" style="stroke:#C82930;stroke-width:1;" width="6" x="15" y="420.0527"/><text fill="#000000" font-family="sans-serif" font-size="14" lengthAdjust="spacing" textLength="84.0479" x="27" y="427.3496">brand : String</text><rect fill="none" height="6" style="stroke:#C82930;stroke-width:1;" width="6" x="15" y="438.6738"/><text fill="#000000" font-family="sans-serif" font-size="14" lengthAdjust="spacing" textLength="112.8477" x="27" y="445.9707">tech_used : String</text><rect fill="none" height="6" style="stroke:#C82930;stroke-width:1;" width="6" x="15" y="457.2949"/><text fill="#000000" font-family="sans-serif" font-size="14" lengthAdjust="spacing" textLength="63.0273" x="27" y="464.5918">lot : String</text><rect fill="none" height="6" style="stroke:#C82930;stroke-width:1;" width="6" x="15" y="475.916"/><text fill="#000000" font-family="sans-serif" font-size="14" lengthAdjust="spacing" textLength="96.4961" x="27" y="483.2129">disease : String</text><line style="stroke:#181818;stroke-width:1;" x1="8" x2="187.627" y1="490.7266" y2="490.7266"/><ellipse cx="18" cy="505.5371" fill="#84BE84" rx="3" ry="3" style="stroke:#038048;stroke-width:1;"/><text fill="#000000" font-family="sans-serif" font-size="14" lengthAdjust="spacing" textLength="155.627" x="27" y="509.834">createVaccine(): Vaccine</text></g><!--reverse link Person to DGSAdminUser--><g class="link" data-entity-1="Person" data-entity-2="DGSAdminUser" data-source-line="26" data-uid="lnk5" id="link_Person_DGSAdminUser"><path codeLine="26" d="M98,168.9711 C98,189.0911 98,193.5711 98,211.4111" fill="none" id="Person-backto-DGSAdminUser" style="stroke:#181818;stroke-width:1;"/><polygon fill="none" points="98,150.9711,92,168.9711,104,168.9711,98,150.9711" style="stroke:#181818;stroke-width:1;"/></g><!--link DGSAdminUser to Vaccine--><g class="link" data-entity-1="DGSAdminUser" data-entity-2="Vaccine" data-source-line="27" data-uid="lnk6" id="link_DGSAdminUser_Vaccine"><path codeLine="27" d="M98,278.8711 C98,300.5711 98,324.0211 98,351.6011" fill="none" id="DGSAdminUser-to-Vaccine" style="stroke:#181818;stroke-width:1;"/><polygon fill="#181818" points="98,357.6011,102,348.6011,98,352.6011,94,348.6011,98,357.6011" style="stroke:#181818;stroke-width:1;"/><polygon fill="#000000" points="103,323.2666,105.9389,314.2215,100.0611,314.2215,103,323.2666" style="stroke:#000000;stroke-width:1;"/><text fill="#000000" font-family="sans-serif" font-size="13" lengthAdjust="spacing" textLength="49.8481" x="112" y="323.6494">registers</text></g><!--SRC=[NP11QyCm38Nl_XM27RenrD2h6OMnmQw3q5s3weZ4O2l1LaxR_lkQrWbhV13uqzFZIRjUTSosgiP0ebCCUpV4oWNA6LjFNQ9eZ7eD3AVwS024jxa7xqlFtRuVzMiRlPmo9_WsS7a8D9F6jnQyg87VHVp9AGzIP0yW5Db2hSbBLz3O3yADJF7CgKnVEKVoOTMkXb_ad1U-EUBL4Fux8fmJIRjXogvlfinR7WRTaDPdfhpnnBa-WqjCoYN1uvDTmipfJDdqvGVnxaJcxbw8ntK52uaxd_Ko24Vp1m00]--></g></svg>