<svg xmlns="http://www.w3.org/2000/svg" xmlns:xlink="http://www.w3.org/1999/xlink" contentStyleType="text/css" data-diagram-type="CLASS" height="284px" preserveAspectRatio="none" style="width:495px;height:284px;background:#FFFFFF;" version="1.1" viewBox="0 0 495 284" width="495px" zoomAndPan="magnify"><title>US15 - Domain Model</title><defs/><g><g class="title" data-source-line="2"><text fill="#000000" font-family="sans-serif" font-size="14" font-weight="bold" lengthAdjust="spacing" textLength="143.1309" x="168.9741" y="25.1074">US15 - Domain Model</text></g><!--class Person--><g class="entity" data-entity="Person" data-source-line="6" data-uid="ent0002" id="entity_Person"><rect fill="#F1F1F1" height="103.8633" rx="2.5" ry="2.5" style="stroke:#181818;stroke-width:0.5;" width="161.4404" x="162" y="46.6211"/><ellipse cx="216.291" cy="62.6211" fill="#ADD1B2" rx="11" ry="11" style="stroke:#181818;stroke-width:1;"/><path d="M219.0566,58.4961 Q219.2129,58.2773 219.4004,58.168 Q219.5879,58.0586 219.8066,58.0586 Q220.1816,58.0586 220.416,58.3242 Q220.6504,58.5742 220.6504,59.1836 L220.6504,60.6367 Q220.6504,61.2461 220.416,61.5117 Q220.1816,61.7773 219.8066,61.7773 Q219.4629,61.7773 219.2598,61.5742 Q219.0566,61.3867 218.9473,60.8711 Q218.9004,60.5117 218.7129,60.3242 Q218.3848,59.9492 217.7754,59.7305 Q217.166,59.5117 216.541,59.5117 Q215.7754,59.5117 215.1348,59.8398 Q214.5098,60.168 214.0098,60.918 Q213.5254,61.668 213.5254,62.6992 L213.5254,63.793 Q213.5254,65.0273 214.416,65.8555 Q215.3066,66.668 216.9004,66.668 Q217.8379,66.668 218.4941,66.418 Q218.8848,66.2617 219.3066,65.8242 Q219.5723,65.5586 219.7129,65.4805 Q219.8691,65.4023 220.0723,65.4023 Q220.4004,65.4023 220.6504,65.668 Q220.916,65.918 220.916,66.2617 Q220.916,66.6055 220.5723,67.0117 Q220.0723,67.5898 219.2754,67.918 Q218.1973,68.3711 216.9004,68.3711 Q215.3848,68.3711 214.1816,67.7461 Q213.1973,67.2461 212.5098,66.1836 Q211.8223,65.1055 211.8223,63.8242 L211.8223,62.668 Q211.8223,61.3398 212.4316,60.1992 Q213.0566,59.043 214.1504,58.4336 Q215.2441,57.8086 216.4785,57.8086 Q217.2129,57.8086 217.8535,57.9805 Q218.5098,58.1367 219.0566,58.4961 Z " fill="#000000"/><text fill="#000000" font-family="sans-serif" font-size="14" lengthAdjust="spacing" textLength="44.3584" x="236.791" y="68.418">Person</text><line style="stroke:#181818;stroke-width:0.5;" x1="163" x2="322.4404" y1="78.6211" y2="78.6211"/><text fill="#000000" font-family="sans-serif" font-size="14" lengthAdjust="spacing" textLength="73.917" x="168" y="97.7285">name : Text</text><text fill="#000000" font-family="sans-serif" font-size="14" lengthAdjust="spacing" textLength="149.4404" x="168" y="116.3496">phone_number : Integer</text><text fill="#000000" font-family="sans-serif" font-size="14" lengthAdjust="spacing" textLength="72.3516" x="168" y="134.9707">email : Text</text><line style="stroke:#181818;stroke-width:0.5;" x1="163" x2="322.4404" y1="142.4844" y2="142.4844"/></g><!--class NurseUser--><g class="entity" data-entity="NurseUser" data-source-line="12" data-uid="ent0003" id="entity_NurseUser"><rect fill="#F1F1F1" height="66.6211" rx="2.5" ry="2.5" style="stroke:#181818;stroke-width:0.5;" width="120.958" x="7" y="210.6211"/><ellipse cx="31.9246" cy="226.6211" fill="#ADD1B2" rx="11" ry="11" style="stroke:#181818;stroke-width:1;"/><path d="M34.6902,222.4961 Q34.8465,222.2773 35.034,222.168 Q35.2215,222.0586 35.4402,222.0586 Q35.8152,222.0586 36.0496,222.3242 Q36.284,222.5742 36.284,223.1836 L36.284,224.6367 Q36.284,225.2461 36.0496,225.5117 Q35.8152,225.7773 35.4402,225.7773 Q35.0965,225.7773 34.8934,225.5742 Q34.6902,225.3867 34.5809,224.8711 Q34.534,224.5117 34.3465,224.3242 Q34.0184,223.9492 33.409,223.7305 Q32.7996,223.5117 32.1746,223.5117 Q31.409,223.5117 30.7684,223.8398 Q30.1434,224.168 29.6434,224.918 Q29.159,225.668 29.159,226.6992 L29.159,227.793 Q29.159,229.0273 30.0496,229.8555 Q30.9402,230.668 32.534,230.668 Q33.4715,230.668 34.1277,230.418 Q34.5184,230.2617 34.9402,229.8242 Q35.2059,229.5586 35.3465,229.4805 Q35.5027,229.4023 35.7059,229.4023 Q36.034,229.4023 36.284,229.668 Q36.5496,229.918 36.5496,230.2617 Q36.5496,230.6055 36.2059,231.0117 Q35.7059,231.5898 34.909,231.918 Q33.8309,232.3711 32.534,232.3711 Q31.0184,232.3711 29.8152,231.7461 Q28.8309,231.2461 28.1434,230.1836 Q27.4559,229.1055 27.4559,227.8242 L27.4559,226.668 Q27.4559,225.3398 28.0652,224.1992 Q28.6902,223.043 29.784,222.4336 Q30.8777,221.8086 32.1121,221.8086 Q32.8465,221.8086 33.4871,221.9805 Q34.1434,222.1367 34.6902,222.4961 Z " fill="#000000"/><text fill="#000000" font-family="sans-serif" font-size="14" lengthAdjust="spacing" textLength="66.9033" x="48.1301" y="232.418">NurseUser</text><line style="stroke:#181818;stroke-width:0.5;" x1="8" x2="126.958" y1="242.6211" y2="242.6211"/><text fill="#000000" font-family="sans-serif" font-size="14" lengthAdjust="spacing" textLength="108.958" x="13" y="261.7285">nurse_id : Integer</text><line style="stroke:#181818;stroke-width:0.5;" x1="8" x2="126.958" y1="269.2422" y2="269.2422"/></g><!--class ReceptionistUser--><g class="entity" data-entity="ReceptionistUser" data-source-line="16" data-uid="ent0005" id="entity_ReceptionistUser"><rect fill="#F1F1F1" height="66.6211" rx="2.5" ry="2.5" style="stroke:#181818;stroke-width:0.5;" width="157.5303" x="163.5" y="210.6211"/><ellipse cx="187.0188" cy="226.6211" fill="#ADD1B2" rx="11" ry="11" style="stroke:#181818;stroke-width:1;"/><path d="M189.7844,222.4961 Q189.9407,222.2773 190.1282,222.168 Q190.3157,222.0586 190.5344,222.0586 Q190.9094,222.0586 191.1438,222.3242 Q191.3782,222.5742 191.3782,223.1836 L191.3782,224.6367 Q191.3782,225.2461 191.1438,225.5117 Q190.9094,225.7773 190.5344,225.7773 Q190.1907,225.7773 189.9875,225.5742 Q189.7844,225.3867 189.675,224.8711 Q189.6282,224.5117 189.4407,224.3242 Q189.1125,223.9492 188.5032,223.7305 Q187.8938,223.5117 187.2688,223.5117 Q186.5032,223.5117 185.8625,223.8398 Q185.2375,224.168 184.7375,224.918 Q184.2532,225.668 184.2532,226.6992 L184.2532,227.793 Q184.2532,229.0273 185.1438,229.8555 Q186.0344,230.668 187.6282,230.668 Q188.5657,230.668 189.2219,230.418 Q189.6125,230.2617 190.0344,229.8242 Q190.3,229.5586 190.4407,229.4805 Q190.5969,229.4023 190.8,229.4023 Q191.1282,229.4023 191.3782,229.668 Q191.6438,229.918 191.6438,230.2617 Q191.6438,230.6055 191.3,231.0117 Q190.8,231.5898 190.0032,231.918 Q188.925,232.3711 187.6282,232.3711 Q186.1125,232.3711 184.9094,231.7461 Q183.925,231.2461 183.2375,230.1836 Q182.55,229.1055 182.55,227.8242 L182.55,226.668 Q182.55,225.3398 183.1594,224.1992 Q183.7844,223.043 184.8782,222.4336 Q185.9719,221.8086 187.2063,221.8086 Q187.9407,221.8086 188.5813,221.9805 Q189.2375,222.1367 189.7844,222.4961 Z " fill="#000000"/><text fill="#000000" font-family="sans-serif" font-size="14" lengthAdjust="spacing" textLength="106.5996" x="202.9119" y="232.418">ReceptionistUser</text><line style="stroke:#181818;stroke-width:0.5;" x1="164.5" x2="320.0303" y1="242.6211" y2="242.6211"/><text fill="#000000" font-family="sans-serif" font-size="14" lengthAdjust="spacing" textLength="145.5303" x="169.5" y="261.7285">receptionist_id : Integer</text><line style="stroke:#181818;stroke-width:0.5;" x1="164.5" x2="320.0303" y1="269.2422" y2="269.2422"/></g><!--class DGSAdminUser--><g class="entity" data-entity="DGSAdminUser" data-source-line="20" data-uid="ent0007" id="entity_DGSAdminUser"><rect fill="#F1F1F1" height="66.6211" rx="2.5" ry="2.5" style="stroke:#181818;stroke-width:0.5;" width="131.5791" x="356.5" y="210.6211"/><ellipse cx="371.5" cy="226.6211" fill="#ADD1B2" rx="11" ry="11" style="stroke:#181818;stroke-width:1;"/><path d="M374.2656,222.4961 Q374.4219,222.2773 374.6094,222.168 Q374.7969,222.0586 375.0156,222.0586 Q375.3906,222.0586 375.625,222.3242 Q375.8594,222.5742 375.8594,223.1836 L375.8594,224.6367 Q375.8594,225.2461 375.625,225.5117 Q375.3906,225.7773 375.0156,225.7773 Q374.6719,225.7773 374.4688,225.5742 Q374.2656,225.3867 374.1563,224.8711 Q374.1094,224.5117 373.9219,224.3242 Q373.5938,223.9492 372.9844,223.7305 Q372.375,223.5117 371.75,223.5117 Q370.9844,223.5117 370.3438,223.8398 Q369.7188,224.168 369.2188,224.918 Q368.7344,225.668 368.7344,226.6992 L368.7344,227.793 Q368.7344,229.0273 369.625,229.8555 Q370.5156,230.668 372.1094,230.668 Q373.0469,230.668 373.7031,230.418 Q374.0938,230.2617 374.5156,229.8242 Q374.7813,229.5586 374.9219,229.4805 Q375.0781,229.4023 375.2813,229.4023 Q375.6094,229.4023 375.8594,229.668 Q376.125,229.918 376.125,230.2617 Q376.125,230.6055 375.7813,231.0117 Q375.2813,231.5898 374.4844,231.918 Q373.4063,232.3711 372.1094,232.3711 Q370.5938,232.3711 369.3906,231.7461 Q368.4063,231.2461 367.7188,230.1836 Q367.0313,229.1055 367.0313,227.8242 L367.0313,226.668 Q367.0313,225.3398 367.6406,224.1992 Q368.2656,223.043 369.3594,222.4336 Q370.4531,221.8086 371.6875,221.8086 Q372.4219,221.8086 373.0625,221.9805 Q373.7188,222.1367 374.2656,222.4961 Z " fill="#000000"/><text fill="#000000" font-family="sans-serif" font-size="14" lengthAdjust="spacing" textLength="99.5791" x="385.5" y="232.418">DGSAdminUser</text><line style="stroke:#181818;stroke-width:0.5;" x1="357.5" x2="487.0791" y1="242.6211" y2="242.6211"/><text fill="#000000" font-family="sans-serif" font-size="14" lengthAdjust="spacing" textLength="112.0684" x="362.5" y="261.7285">admin_id : Integer</text><line style="stroke:#181818;stroke-width:0.5;" x1="357.5" x2="487.0791" y1="269.2422" y2="269.2422"/></g><!--reverse link Person to NurseUser--><g class="link" data-entity-1="Person" data-entity-2="NurseUser" data-source-line="13" data-uid="lnk4" id="link_Person_NurseUser"><path d="M165.9016,162.435 C141.6716,182.305 128.6,193.0211 107.15,210.6111" fill="none" id="Person-backto-NurseUser" style="stroke:#181818;stroke-width:1;"/><polygon fill="none" points="179.82,151.0211,162.0969,157.7955,169.7062,167.0745,179.82,151.0211" style="stroke:#181818;stroke-width:1;"/></g><!--reverse link Person to ReceptionistUser--><g class="link" data-entity-1="Person" data-entity-2="ReceptionistUser" data-source-line="17" data-uid="lnk6" id="link_Person_ReceptionistUser"><path d="M242.5,169.0211 C242.5,188.8111 242.5,192.8411 242.5,210.3911" fill="none" id="Person-backto-ReceptionistUser" style="stroke:#181818;stroke-width:1;"/><polygon fill="none" points="242.5,151.0211,236.5,169.0211,248.5,169.0211,242.5,151.0211" style="stroke:#181818;stroke-width:1;"/></g><!--reverse link Person to DGSAdminUser--><g class="link" data-entity-1="Person" data-entity-2="DGSAdminUser" data-source-line="21" data-uid="lnk8" id="link_Person_DGSAdminUser"><path d="M320.7954,162.0408 C345.7354,181.9208 359.48,192.8811 381.6,210.5111" fill="none" id="Person-backto-DGSAdminUser" style="stroke:#181818;stroke-width:1;"/><polygon fill="none" points="306.72,150.8211,317.0555,166.7326,324.5353,157.349,306.72,150.8211" style="stroke:#181818;stroke-width:1;"/></g><!--SRC=[TOsn2i9044Jx-uhjh0GjREm4HImKCLhBcGowcDiBTniGnN_teaIYQBdpPjxsQ9SDHpJrphBGqXSeQNR94IerobhYnViV3MFYcQMomJhAInlZH3NmeLOiSYyPNq43Ovw4rWZH2zqCaLW76jCM5qrNTVA2lTJkW93IXIYE20aWFIhRthtrhEeGiOkfcs98yMbku9wBZkSzt217fUo5e_xOD_FGgVonJEVPf70iVmosOT_J1m00]--></g></svg>