<svg xmlns="http://www.w3.org/2000/svg" xmlns:xlink="http://www.w3.org/1999/xlink" contentStyleType="text/css" data-diagram-type="SEQUENCE" height="351px" preserveAspectRatio="none" style="width:425px;height:351px;background:#FFFFFF;" version="1.1" viewBox="0 0 425 351" width="425px" zoomAndPan="magnify"><title>US15 - Get Employee List by Role (SSD)</title><defs/><g><text fill="#000000" font-family="sans-serif" font-size="14" font-weight="bold" lengthAdjust="spacing" textLength="266.0615" x="78.7983" y="30.1074">US15 - Get Employee List by Role (SSD)</text><g><title>Admin</title><rect fill="#FFFFFF" height="126.1641" style="stroke:#181818;stroke-width:1;" width="10" x="22.8413" y="133.2422"/></g><g><title>.System</title><rect fill="#FFFFFF" height="31.291" style="stroke:#181818;stroke-width:1;" width="10" x="382.3755" y="156.5332"/></g><g><title>.System</title><rect fill="#FFFFFF" height="31.291" style="stroke:#181818;stroke-width:1;" width="10" x="382.3755" y="219.1152"/></g><g><title>Admin</title><rect fill="#000000" fill-opacity="0.00000" height="145.1641" width="8" x="23.8413" y="123.2422"/><line style="stroke:#181818;stroke-width:0.5;stroke-dasharray:5,5;" x1="27" x2="27" y1="123.2422" y2="268.4063"/></g><g><title>.System</title><rect fill="#000000" fill-opacity="0.00000" height="145.1641" width="8" x="383.3755" y="123.2422"/><line style="stroke:#181818;stroke-width:0.5;stroke-dasharray:5,5;" x1="387.0928" x2="387.0928" y1="123.2422" y2="268.4063"/></g><g class="participant participant-head" data-participant="Admin"><text fill="#000000" font-family="sans-serif" font-size="14" lengthAdjust="spacing" textLength="39.6826" x="5" y="119.7285">Admin</text><ellipse cx="27.8413" cy="53.1211" fill="#E2E2F0" rx="8" ry="8" style="stroke:#181818;stroke-width:0.5;"/><path d="M27.8413,61.1211 L27.8413,88.1211 M14.8413,69.1211 L40.8413,69.1211 M27.8413,88.1211 L14.8413,103.1211 M27.8413,88.1211 L40.8413,103.1211" fill="none" style="stroke:#181818;stroke-width:0.5;"/></g><g class="participant participant-tail" data-participant="Admin"><text fill="#000000" font-family="sans-serif" font-size="14" lengthAdjust="spacing" textLength="39.6826" x="5" y="282.5137">Admin</text><ellipse cx="27.8413" cy="294.5273" fill="#E2E2F0" rx="8" ry="8" style="stroke:#181818;stroke-width:0.5;"/><path d="M27.8413,302.5273 L27.8413,329.5273 M14.8413,310.5273 L40.8413,310.5273 M27.8413,329.5273 L14.8413,344.5273 M27.8413,329.5273 L40.8413,344.5273" fill="none" style="stroke:#181818;stroke-width:0.5;"/></g><g class="participant participant-head" data-participant="System"><rect fill="#E2E2F0" height="32.6211" rx="2.5" ry="2.5" style="stroke:#181818;stroke-width:0.5;" width="64.5654" x="355.0928" y="89.6211"/><text fill="#000000" font-family="sans-serif" font-size="14" lengthAdjust="spacing" textLength="50.5654" x="362.0928" y="111.7285">:System</text></g><g class="participant participant-tail" data-participant="System"><rect fill="#E2E2F0" height="32.6211" rx="2.5" ry="2.5" style="stroke:#181818;stroke-width:0.5;" width="64.5654" x="355.0928" y="267.4063"/><text fill="#000000" font-family="sans-serif" font-size="14" lengthAdjust="spacing" textLength="50.5654" x="362.0928" y="289.5137">:System</text></g><g><title>Admin</title><rect fill="#FFFFFF" height="126.1641" style="stroke:#181818;stroke-width:1;" width="10" x="22.8413" y="133.2422"/></g><g><title>.System</title><rect fill="#FFFFFF" height="31.291" style="stroke:#181818;stroke-width:1;" width="10" x="382.3755" y="156.5332"/></g><g><title>.System</title><rect fill="#FFFFFF" height="31.291" style="stroke:#181818;stroke-width:1;" width="10" x="382.3755" y="219.1152"/></g><g class="message" data-participant-1="Admin" data-participant-2="System"><polygon fill="#181818" points="370.3755,152.5332,380.3755,156.5332,370.3755,160.5332,374.3755,156.5332" style="stroke:#181818;stroke-width:1;"/><line style="stroke:#181818;stroke-width:1;" x1="32.8413" x2="376.3755" y1="156.5332" y2="156.5332"/><text fill="#000000" font-family="sans-serif" font-size="13" font-weight="bold" lengthAdjust="spacing" textLength="7.23" x="39.8413" y="151.2705">1</text><text fill="#000000" font-family="sans-serif" font-size="13" lengthAdjust="spacing" textLength="235.5615" x="51.0713" y="151.2705">Asks to get employee list by role/function</text></g><g class="message" data-participant-1="System" data-participant-2="Admin"><polygon fill="#181818" points="43.8413,183.8242,33.8413,187.8242,43.8413,191.8242,39.8413,187.8242" style="stroke:#181818;stroke-width:1;"/><line style="stroke:#181818;stroke-width:1;stroke-dasharray:2,2;" x1="37.8413" x2="386.3755" y1="187.8242" y2="187.8242"/><text fill="#000000" font-family="sans-serif" font-size="13" font-weight="bold" lengthAdjust="spacing" textLength="7.23" x="49.8413" y="182.5615">2</text><text fill="#000000" font-family="sans-serif" font-size="13" lengthAdjust="spacing" textLength="314.3042" x="61.0713" y="182.5615">Shows list of available roles (e.g., Nurse, Receptionist)</text></g><g class="message" data-participant-1="Admin" data-participant-2="System"><polygon fill="#181818" points="370.3755,215.1152,380.3755,219.1152,370.3755,223.1152,374.3755,219.1152" style="stroke:#181818;stroke-width:1;"/><line style="stroke:#181818;stroke-width:1;" x1="32.8413" x2="376.3755" y1="219.1152" y2="219.1152"/><text fill="#000000" font-family="sans-serif" font-size="13" font-weight="bold" lengthAdjust="spacing" textLength="7.23" x="39.8413" y="213.8525">3</text><text fill="#000000" font-family="sans-serif" font-size="13" lengthAdjust="spacing" textLength="263.3579" x="51.0713" y="213.8525">Selects the employee's assigned role/function</text></g><g class="message" data-participant-1="System" data-participant-2="Admin"><polygon fill="#181818" points="43.8413,246.4063,33.8413,250.4063,43.8413,254.4063,39.8413,250.4063" style="stroke:#181818;stroke-width:1;"/><line style="stroke:#181818;stroke-width:1;stroke-dasharray:2,2;" x1="37.8413" x2="386.3755" y1="250.4063" y2="250.4063"/><text fill="#000000" font-family="sans-serif" font-size="13" font-weight="bold" lengthAdjust="spacing" textLength="7.23" x="49.8413" y="245.1436">4</text><text fill="#000000" font-family="sans-serif" font-size="13" lengthAdjust="spacing" textLength="148.1353" x="61.0713" y="245.1436">Returns the requested list</text></g><!--SRC=[XP4zQyCm48Pt_Oh3InA8RJfqyL08j7Gf7Mpw0sJvueZegz8fnV- -PpdjLEYa4_UyBu_Gxa8KKjUsmKX7sPf6UTic_Cpe5DQJbdEKLf0cW_0nF3n23Qz8y6A3yGiYlEb4C2xGUmRsm_1y449cybAHlab2yAxSNROZHjufyX6gqsIrgq0cA9C8Cf9MEh04LDsm949RrjjOSblVnejoGFrq1peufMi2yZ2p7VxOcRjTPBlsd1sNiCyMWPhJfQQ3uUA_qaRxCyYRr4QE_A0rbs2FpTmSuJt7X4VeKM5OUvW-_24oe455x7B1Nv5TuhSaFJkS_dNfaN9qMpwk7y70LDp4Dm00]--></g></svg>