<svg xmlns="http://www.w3.org/2000/svg" xmlns:xlink="http://www.w3.org/1999/xlink" contentStyleType="text/css" data-diagram-type="CLASS" height="576px" preserveAspectRatio="none" style="width:856px;height:576px;background:#FFFFFF;" version="1.1" viewBox="0 0 856 576" width="856px" zoomAndPan="magnify"><title>US15 Class Diagram</title><defs/><g><g class="title" data-source-line="3"><text fill="#000000" font-family="sans-serif" font-size="14" font-weight="bold" lengthAdjust="spacing" textLength="136.1787" x="353.4102" y="25.1074">US15 Class Diagram</text></g><!--class GetEmployeeListView--><g class="entity" data-entity="GetEmployeeListView" data-source-line="5" data-uid="ent0002" id="entity_GetEmployeeListView"><rect fill="#F1F1F1" height="48" rx="2.5" ry="2.5" style="stroke:#181818;stroke-width:0.5;" width="168.9512" x="425" y="46.6211"/><ellipse cx="440" cy="62.6211" fill="#ADD1B2" rx="11" ry="11" style="stroke:#181818;stroke-width:1;"/><path d="M442.7656,58.4961 Q442.9219,58.2773 443.1094,58.168 Q443.2969,58.0586 443.5156,58.0586 Q443.8906,58.0586 444.125,58.3242 Q444.3594,58.5742 444.3594,59.1836 L444.3594,60.6367 Q444.3594,61.2461 444.125,61.5117 Q443.8906,61.7773 443.5156,61.7773 Q443.1719,61.7773 442.9688,61.5742 Q442.7656,61.3867 442.6563,60.8711 Q442.6094,60.5117 442.4219,60.3242 Q442.0938,59.9492 441.4844,59.7305 Q440.875,59.5117 440.25,59.5117 Q439.4844,59.5117 438.8438,59.8398 Q438.2188,60.168 437.7188,60.918 Q437.2344,61.668 437.2344,62.6992 L437.2344,63.793 Q437.2344,65.0273 438.125,65.8555 Q439.0156,66.668 440.6094,66.668 Q441.5469,66.668 442.2031,66.418 Q442.5938,66.2617 443.0156,65.8242 Q443.2813,65.5586 443.4219,65.4805 Q443.5781,65.4023 443.7813,65.4023 Q444.1094,65.4023 444.3594,65.668 Q444.625,65.918 444.625,66.2617 Q444.625,66.6055 444.2813,67.0117 Q443.7813,67.5898 442.9844,67.918 Q441.9063,68.3711 440.6094,68.3711 Q439.0938,68.3711 437.8906,67.7461 Q436.9063,67.2461 436.2188,66.1836 Q435.5313,65.1055 435.5313,63.8242 L435.5313,62.668 Q435.5313,61.3398 436.1406,60.1992 Q436.7656,59.043 437.8594,58.4336 Q438.9531,57.8086 440.1875,57.8086 Q440.9219,57.8086 441.5625,57.9805 Q442.2188,58.1367 442.7656,58.4961 Z " fill="#000000"/><text fill="#000000" font-family="sans-serif" font-size="14" lengthAdjust="spacing" textLength="136.9512" x="454" y="68.418">GetEmployeeListView</text><line style="stroke:#181818;stroke-width:0.5;" x1="426" x2="592.9512" y1="78.6211" y2="78.6211"/><line style="stroke:#181818;stroke-width:0.5;" x1="426" x2="592.9512" y1="86.6211" y2="86.6211"/></g><!--class GetEmployeeListController--><g class="entity" data-entity="GetEmployeeListController" data-source-line="8" data-uid="ent0003" id="entity_GetEmployeeListController"><rect fill="#F1F1F1" height="66.6211" rx="2.5" ry="2.5" style="stroke:#181818;stroke-width:0.5;" width="296.0195" x="361.5" y="173.6211"/><ellipse cx="421.6118" cy="189.6211" fill="#ADD1B2" rx="11" ry="11" style="stroke:#181818;stroke-width:1;"/><path d="M424.3774,185.4961 Q424.5337,185.2773 424.7212,185.168 Q424.9087,185.0586 425.1274,185.0586 Q425.5024,185.0586 425.7368,185.3242 Q425.9712,185.5742 425.9712,186.1836 L425.9712,187.6367 Q425.9712,188.2461 425.7368,188.5117 Q425.5024,188.7773 425.1274,188.7773 Q424.7837,188.7773 424.5806,188.5742 Q424.3774,188.3867 424.2681,187.8711 Q424.2212,187.5117 424.0337,187.3242 Q423.7056,186.9492 423.0962,186.7305 Q422.4868,186.5117 421.8618,186.5117 Q421.0962,186.5117 420.4556,186.8398 Q419.8306,187.168 419.3306,187.918 Q418.8462,188.668 418.8462,189.6992 L418.8462,190.793 Q418.8462,192.0273 419.7368,192.8555 Q420.6274,193.668 422.2212,193.668 Q423.1587,193.668 423.8149,193.418 Q424.2056,193.2617 424.6274,192.8242 Q424.8931,192.5586 425.0337,192.4805 Q425.1899,192.4023 425.3931,192.4023 Q425.7212,192.4023 425.9712,192.668 Q426.2368,192.918 426.2368,193.2617 Q426.2368,193.6055 425.8931,194.0117 Q425.3931,194.5898 424.5962,194.918 Q423.5181,195.3711 422.2212,195.3711 Q420.7056,195.3711 419.5024,194.7461 Q418.5181,194.2461 417.8306,193.1836 Q417.1431,192.1055 417.1431,190.8242 L417.1431,189.668 Q417.1431,188.3398 417.7524,187.1992 Q418.3774,186.043 419.4712,185.4336 Q420.5649,184.8086 421.7993,184.8086 Q422.5337,184.8086 423.1743,184.9805 Q423.8306,185.1367 424.3774,185.4961 Z " fill="#000000"/><text fill="#000000" font-family="sans-serif" font-size="14" lengthAdjust="spacing" textLength="167.2959" x="442.1118" y="195.418">GetEmployeeListController</text><line style="stroke:#181818;stroke-width:0.5;" x1="362.5" x2="656.5195" y1="205.6211" y2="205.6211"/><line style="stroke:#181818;stroke-width:0.5;" x1="362.5" x2="656.5195" y1="213.6211" y2="213.6211"/><ellipse cx="372.5" cy="228.4316" fill="#84BE84" rx="3" ry="3" style="stroke:#038048;stroke-width:1;"/><text fill="#000000" font-family="sans-serif" font-size="14" lengthAdjust="spacing" textLength="270.0195" x="381.5" y="232.7285">getEmployeeList(role) : List&lt;EmployeeList&gt;</text></g><!--class NurseContainer--><g class="entity" data-entity="NurseContainer" data-source-line="12" data-uid="ent0004" id="entity_NurseContainer"><rect fill="#F1F1F1" height="85.2422" rx="2.5" ry="2.5" style="stroke:#181818;stroke-width:0.5;" width="230.627" x="7" y="329.1211"/><ellipse cx="69.0396" cy="345.1211" fill="#ADD1B2" rx="11" ry="11" style="stroke:#181818;stroke-width:1;"/><path d="M71.8052,340.9961 Q71.9614,340.7773 72.1489,340.668 Q72.3364,340.5586 72.5552,340.5586 Q72.9302,340.5586 73.1646,340.8242 Q73.3989,341.0742 73.3989,341.6836 L73.3989,343.1367 Q73.3989,343.7461 73.1646,344.0117 Q72.9302,344.2773 72.5552,344.2773 Q72.2114,344.2773 72.0083,344.0742 Q71.8052,343.8867 71.6958,343.3711 Q71.6489,343.0117 71.4614,342.8242 Q71.1333,342.4492 70.5239,342.2305 Q69.9146,342.0117 69.2896,342.0117 Q68.5239,342.0117 67.8833,342.3398 Q67.2583,342.668 66.7583,343.418 Q66.2739,344.168 66.2739,345.1992 L66.2739,346.293 Q66.2739,347.5273 67.1646,348.3555 Q68.0552,349.168 69.6489,349.168 Q70.5864,349.168 71.2427,348.918 Q71.6333,348.7617 72.0552,348.3242 Q72.3208,348.0586 72.4614,347.9805 Q72.6177,347.9023 72.8208,347.9023 Q73.1489,347.9023 73.3989,348.168 Q73.6646,348.418 73.6646,348.7617 Q73.6646,349.1055 73.3208,349.5117 Q72.8208,350.0898 72.0239,350.418 Q70.9458,350.8711 69.6489,350.8711 Q68.1333,350.8711 66.9302,350.2461 Q65.9458,349.7461 65.2583,348.6836 Q64.5708,347.6055 64.5708,346.3242 L64.5708,345.168 Q64.5708,343.8398 65.1802,342.6992 Q65.8052,341.543 66.8989,340.9336 Q67.9927,340.3086 69.2271,340.3086 Q69.9614,340.3086 70.6021,340.4805 Q71.2583,340.6367 71.8052,340.9961 Z " fill="#000000"/><text fill="#000000" font-family="sans-serif" font-size="14" lengthAdjust="spacing" textLength="98.0479" x="89.5396" y="350.918">NurseContainer</text><line style="stroke:#181818;stroke-width:0.5;" x1="8" x2="236.627" y1="361.1211" y2="361.1211"/><rect fill="none" height="6" style="stroke:#C82930;stroke-width:1;" width="6" x="15" y="372.9316"/><text fill="#000000" font-family="sans-serif" font-size="14" lengthAdjust="spacing" textLength="158.7305" x="27" y="380.2285">nurses : List&lt;NurseUser&gt;</text><line style="stroke:#181818;stroke-width:0.5;" x1="8" x2="236.627" y1="387.7422" y2="387.7422"/><ellipse cx="18" cy="402.5527" fill="#84BE84" rx="3" ry="3" style="stroke:#038048;stroke-width:1;"/><text fill="#000000" font-family="sans-serif" font-size="14" lengthAdjust="spacing" textLength="204.627" x="27" y="406.8496">getNurseList() : List&lt;NurseUser&gt;</text></g><!--class ReceptionistContainer--><g class="entity" data-entity="ReceptionistContainer" data-source-line="17" data-uid="ent0005" id="entity_ReceptionistContainer"><rect fill="#F1F1F1" height="85.2422" rx="2.5" ry="2.5" style="stroke:#181818;stroke-width:0.5;" width="246.999" x="603" y="329.1211"/><ellipse cx="653.3774" cy="345.1211" fill="#ADD1B2" rx="11" ry="11" style="stroke:#181818;stroke-width:1;"/><path d="M656.1431,340.9961 Q656.2993,340.7773 656.4868,340.668 Q656.6743,340.5586 656.8931,340.5586 Q657.2681,340.5586 657.5024,340.8242 Q657.7368,341.0742 657.7368,341.6836 L657.7368,343.1367 Q657.7368,343.7461 657.5024,344.0117 Q657.2681,344.2773 656.8931,344.2773 Q656.5493,344.2773 656.3462,344.0742 Q656.1431,343.8867 656.0337,343.3711 Q655.9868,343.0117 655.7993,342.8242 Q655.4712,342.4492 654.8618,342.2305 Q654.2524,342.0117 653.6274,342.0117 Q652.8618,342.0117 652.2212,342.3398 Q651.5962,342.668 651.0962,343.418 Q650.6118,344.168 650.6118,345.1992 L650.6118,346.293 Q650.6118,347.5273 651.5024,348.3555 Q652.3931,349.168 653.9868,349.168 Q654.9243,349.168 655.5806,348.918 Q655.9712,348.7617 656.3931,348.3242 Q656.6587,348.0586 656.7993,347.9805 Q656.9556,347.9023 657.1587,347.9023 Q657.4868,347.9023 657.7368,348.168 Q658.0024,348.418 658.0024,348.7617 Q658.0024,349.1055 657.6587,349.5117 Q657.1587,350.0898 656.3618,350.418 Q655.2837,350.8711 653.9868,350.8711 Q652.4712,350.8711 651.2681,350.2461 Q650.2837,349.7461 649.5962,348.6836 Q648.9087,347.6055 648.9087,346.3242 L648.9087,345.168 Q648.9087,343.8398 649.5181,342.6992 Q650.1431,341.543 651.2368,340.9336 Q652.3306,340.3086 653.5649,340.3086 Q654.2993,340.3086 654.9399,340.4805 Q655.5962,340.6367 656.1431,340.9961 Z " fill="#000000"/><text fill="#000000" font-family="sans-serif" font-size="14" lengthAdjust="spacing" textLength="137.7441" x="673.8774" y="350.918">ReceptionistContainer</text><line style="stroke:#181818;stroke-width:0.5;" x1="604" x2="848.999" y1="361.1211" y2="361.1211"/><text fill="#000000" font-family="sans-serif" font-size="14" lengthAdjust="spacing" textLength="234.999" x="609" y="380.2285">receptionists : List&lt;ReceptionistUser&gt;</text><line style="stroke:#181818;stroke-width:0.5;" x1="604" x2="848.999" y1="387.7422" y2="387.7422"/><ellipse cx="614" cy="402.5527" fill="#84BE84" rx="3" ry="3" style="stroke:#038048;stroke-width:1;"/><text fill="#000000" font-family="sans-serif" font-size="14" lengthAdjust="spacing" textLength="206.2061" x="623" y="406.8496">getReceptionistList(receptionists)</text></g><!--class Person--><g class="entity" data-entity="Person" data-source-line="22" data-uid="ent0006" id="entity_Person"><rect fill="#F1F1F1" height="103.8633" rx="2.5" ry="2.5" style="stroke:#181818;stroke-width:0.5;" width="142.751" x="273" y="319.6211"/><ellipse cx="317.9463" cy="335.6211" fill="#ADD1B2" rx="11" ry="11" style="stroke:#181818;stroke-width:1;"/><path d="M320.7119,331.4961 Q320.8682,331.2773 321.0557,331.168 Q321.2432,331.0586 321.4619,331.0586 Q321.8369,331.0586 322.0713,331.3242 Q322.3057,331.5742 322.3057,332.1836 L322.3057,333.6367 Q322.3057,334.2461 322.0713,334.5117 Q321.8369,334.7773 321.4619,334.7773 Q321.1182,334.7773 320.915,334.5742 Q320.7119,334.3867 320.6025,333.8711 Q320.5557,333.5117 320.3682,333.3242 Q320.04,332.9492 319.4307,332.7305 Q318.8213,332.5117 318.1963,332.5117 Q317.4307,332.5117 316.79,332.8398 Q316.165,333.168 315.665,333.918 Q315.1807,334.668 315.1807,335.6992 L315.1807,336.793 Q315.1807,338.0273 316.0713,338.8555 Q316.9619,339.668 318.5557,339.668 Q319.4932,339.668 320.1494,339.418 Q320.54,339.2617 320.9619,338.8242 Q321.2275,338.5586 321.3682,338.4805 Q321.5244,338.4023 321.7275,338.4023 Q322.0557,338.4023 322.3057,338.668 Q322.5713,338.918 322.5713,339.2617 Q322.5713,339.6055 322.2275,340.0117 Q321.7275,340.5898 320.9307,340.918 Q319.8525,341.3711 318.5557,341.3711 Q317.04,341.3711 315.8369,340.7461 Q314.8525,340.2461 314.165,339.1836 Q313.4775,338.1055 313.4775,336.8242 L313.4775,335.668 Q313.4775,334.3398 314.0869,333.1992 Q314.7119,332.043 315.8057,331.4336 Q316.8994,330.8086 318.1338,330.8086 Q318.8682,330.8086 319.5088,330.9805 Q320.165,331.1367 320.7119,331.4961 Z " fill="#000000"/><text fill="#000000" font-family="sans-serif" font-size="14" lengthAdjust="spacing" textLength="44.3584" x="338.4463" y="341.418">Person</text><line style="stroke:#181818;stroke-width:0.5;" x1="274" x2="414.751" y1="351.6211" y2="351.6211"/><polygon fill="none" points="284,361.4316,288,365.4316,284,369.4316,280,365.4316" style="stroke:#B38D22;stroke-width:1;"/><text fill="#000000" font-family="sans-serif" font-size="14" lengthAdjust="spacing" textLength="79.3721" x="293" y="370.7285">name: String</text><polygon fill="none" points="284,380.0527,288,384.0527,284,388.0527,280,384.0527" style="stroke:#B38D22;stroke-width:1;"/><text fill="#000000" font-family="sans-serif" font-size="14" lengthAdjust="spacing" textLength="116.751" x="293" y="389.3496">phone_number: int</text><polygon fill="none" points="284,398.6738,288,402.6738,284,406.6738,280,402.6738" style="stroke:#B38D22;stroke-width:1;"/><text fill="#000000" font-family="sans-serif" font-size="14" lengthAdjust="spacing" textLength="77.8066" x="293" y="407.9707">email: String</text><line style="stroke:#181818;stroke-width:0.5;" x1="274" x2="414.751" y1="415.4844" y2="415.4844"/></g><!--class ReceptionistUser--><g class="entity" data-entity="ReceptionistUser" data-source-line="28" data-uid="ent0007" id="entity_ReceptionistUser"><rect fill="#F1F1F1" height="66.6211" rx="2.5" ry="2.5" style="stroke:#181818;stroke-width:0.5;" width="142.7305" x="367" y="502.6211"/><ellipse cx="383.8589" cy="518.6211" fill="#ADD1B2" rx="11" ry="11" style="stroke:#181818;stroke-width:1;"/><path d="M386.6245,514.4961 Q386.7808,514.2773 386.9683,514.168 Q387.1558,514.0586 387.3745,514.0586 Q387.7495,514.0586 387.9839,514.3242 Q388.2183,514.5742 388.2183,515.1836 L388.2183,516.6367 Q388.2183,517.2461 387.9839,517.5117 Q387.7495,517.7773 387.3745,517.7773 Q387.0308,517.7773 386.8276,517.5742 Q386.6245,517.3867 386.5151,516.8711 Q386.4683,516.5117 386.2808,516.3242 Q385.9526,515.9492 385.3433,515.7305 Q384.7339,515.5117 384.1089,515.5117 Q383.3433,515.5117 382.7026,515.8398 Q382.0776,516.168 381.5776,516.918 Q381.0933,517.668 381.0933,518.6992 L381.0933,519.793 Q381.0933,521.0273 381.9839,521.8555 Q382.8745,522.668 384.4683,522.668 Q385.4058,522.668 386.062,522.418 Q386.4526,522.2617 386.8745,521.8242 Q387.1401,521.5586 387.2808,521.4805 Q387.437,521.4023 387.6401,521.4023 Q387.9683,521.4023 388.2183,521.668 Q388.4839,521.918 388.4839,522.2617 Q388.4839,522.6055 388.1401,523.0117 Q387.6401,523.5898 386.8433,523.918 Q385.7651,524.3711 384.4683,524.3711 Q382.9526,524.3711 381.7495,523.7461 Q380.7651,523.2461 380.0776,522.1836 Q379.3901,521.1055 379.3901,519.8242 L379.3901,518.668 Q379.3901,517.3398 379.9995,516.1992 Q380.6245,515.043 381.7183,514.4336 Q382.812,513.8086 384.0464,513.8086 Q384.7808,513.8086 385.4214,513.9805 Q386.0776,514.1367 386.6245,514.4961 Z " fill="#000000"/><text fill="#000000" font-family="sans-serif" font-size="14" lengthAdjust="spacing" textLength="106.5996" x="398.272" y="524.418">ReceptionistUser</text><line style="stroke:#181818;stroke-width:0.5;" x1="368" x2="508.7305" y1="534.6211" y2="534.6211"/><rect fill="none" height="6" style="stroke:#C82930;stroke-width:1;" width="6" x="375" y="546.4316"/><text fill="#000000" font-family="sans-serif" font-size="14" lengthAdjust="spacing" textLength="116.7305" x="387" y="553.7285">receptionist_id : int</text><line style="stroke:#181818;stroke-width:0.5;" x1="368" x2="508.7305" y1="561.2422" y2="561.2422"/></g><!--class NurseUser--><g class="entity" data-entity="NurseUser" data-source-line="32" data-uid="ent0008" id="entity_NurseUser"><rect fill="#F1F1F1" height="66.6211" rx="2.5" ry="2.5" style="stroke:#181818;stroke-width:0.5;" width="102.2686" x="198.5" y="502.6211"/><ellipse cx="215.0144" cy="518.6211" fill="#ADD1B2" rx="11" ry="11" style="stroke:#181818;stroke-width:1;"/><path d="M217.78,514.4961 Q217.9362,514.2773 218.1237,514.168 Q218.3112,514.0586 218.53,514.0586 Q218.905,514.0586 219.1394,514.3242 Q219.3737,514.5742 219.3737,515.1836 L219.3737,516.6367 Q219.3737,517.2461 219.1394,517.5117 Q218.905,517.7773 218.53,517.7773 Q218.1862,517.7773 217.9831,517.5742 Q217.78,517.3867 217.6706,516.8711 Q217.6237,516.5117 217.4362,516.3242 Q217.1081,515.9492 216.4987,515.7305 Q215.8894,515.5117 215.2644,515.5117 Q214.4987,515.5117 213.8581,515.8398 Q213.2331,516.168 212.7331,516.918 Q212.2487,517.668 212.2487,518.6992 L212.2487,519.793 Q212.2487,521.0273 213.1394,521.8555 Q214.03,522.668 215.6237,522.668 Q216.5612,522.668 217.2175,522.418 Q217.6081,522.2617 218.03,521.8242 Q218.2956,521.5586 218.4362,521.4805 Q218.5925,521.4023 218.7956,521.4023 Q219.1237,521.4023 219.3737,521.668 Q219.6394,521.918 219.6394,522.2617 Q219.6394,522.6055 219.2956,523.0117 Q218.7956,523.5898 217.9987,523.918 Q216.9206,524.3711 215.6237,524.3711 Q214.1081,524.3711 212.905,523.7461 Q211.9206,523.2461 211.2331,522.1836 Q210.5456,521.1055 210.5456,519.8242 L210.5456,518.668 Q210.5456,517.3398 211.155,516.1992 Q211.78,515.043 212.8737,514.4336 Q213.9675,513.8086 215.2019,513.8086 Q215.9362,513.8086 216.5769,513.9805 Q217.2331,514.1367 217.78,514.4961 Z " fill="#000000"/><text fill="#000000" font-family="sans-serif" font-size="14" lengthAdjust="spacing" textLength="66.9033" x="229.3509" y="524.418">NurseUser</text><line style="stroke:#181818;stroke-width:0.5;" x1="199.5" x2="299.7686" y1="534.6211" y2="534.6211"/><rect fill="none" height="6" style="stroke:#C82930;stroke-width:1;" width="6" x="206.5" y="546.4316"/><text fill="#000000" font-family="sans-serif" font-size="14" lengthAdjust="spacing" textLength="76.2686" x="218.5" y="553.7285">nurse_id: int</text><line style="stroke:#181818;stroke-width:0.5;" x1="199.5" x2="299.7686" y1="561.2422" y2="561.2422"/></g><!--class EmployeeList--><g class="entity" data-entity="EmployeeList" data-source-line="39" data-uid="ent0012" id="entity_EmployeeList"><rect fill="#F1F1F1" height="48" rx="2.5" ry="2.5" style="stroke:#181818;stroke-width:0.5;" width="116.041" x="451.5" y="347.6211"/><ellipse cx="466.5" cy="363.6211" fill="#ADD1B2" rx="11" ry="11" style="stroke:#181818;stroke-width:1;"/><path d="M469.2656,359.4961 Q469.4219,359.2773 469.6094,359.168 Q469.7969,359.0586 470.0156,359.0586 Q470.3906,359.0586 470.625,359.3242 Q470.8594,359.5742 470.8594,360.1836 L470.8594,361.6367 Q470.8594,362.2461 470.625,362.5117 Q470.3906,362.7773 470.0156,362.7773 Q469.6719,362.7773 469.4688,362.5742 Q469.2656,362.3867 469.1563,361.8711 Q469.1094,361.5117 468.9219,361.3242 Q468.5938,360.9492 467.9844,360.7305 Q467.375,360.5117 466.75,360.5117 Q465.9844,360.5117 465.3438,360.8398 Q464.7188,361.168 464.2188,361.918 Q463.7344,362.668 463.7344,363.6992 L463.7344,364.793 Q463.7344,366.0273 464.625,366.8555 Q465.5156,367.668 467.1094,367.668 Q468.0469,367.668 468.7031,367.418 Q469.0938,367.2617 469.5156,366.8242 Q469.7813,366.5586 469.9219,366.4805 Q470.0781,366.4023 470.2813,366.4023 Q470.6094,366.4023 470.8594,366.668 Q471.125,366.918 471.125,367.2617 Q471.125,367.6055 470.7813,368.0117 Q470.2813,368.5898 469.4844,368.918 Q468.4063,369.3711 467.1094,369.3711 Q465.5938,369.3711 464.3906,368.7461 Q463.4063,368.2461 462.7188,367.1836 Q462.0313,366.1055 462.0313,364.8242 L462.0313,363.668 Q462.0313,362.3398 462.6406,361.1992 Q463.2656,360.043 464.3594,359.4336 Q465.4531,358.8086 466.6875,358.8086 Q467.4219,358.8086 468.0625,358.9805 Q468.7188,359.1367 469.2656,359.4961 Z " fill="#000000"/><text fill="#000000" font-family="sans-serif" font-size="14" lengthAdjust="spacing" textLength="84.041" x="480.5" y="369.418">EmployeeList</text><line style="stroke:#181818;stroke-width:0.5;" x1="452.5" x2="566.541" y1="379.6211" y2="379.6211"/><line style="stroke:#181818;stroke-width:0.5;" x1="452.5" x2="566.541" y1="387.6211" y2="387.6211"/></g><!--link GetEmployeeListView to GetEmployeeListController--><g class="link" data-entity-1="GetEmployeeListView" data-entity-2="GetEmployeeListController" data-source-line="36" data-uid="lnk9" id="link_GetEmployeeListView_GetEmployeeListController"><path codeLine="36" d="M509.5,94.7411 C509.5,116.4511 509.5,143.1411 509.5,167.4911" fill="none" id="GetEmployeeListView-to-GetEmployeeListController" style="stroke:#181818;stroke-width:1;stroke-dasharray:7,7;"/><polygon fill="#181818" points="509.5,173.4911,513.5,164.4911,509.5,168.4911,505.5,164.4911,509.5,173.4911" style="stroke:#181818;stroke-width:1;"/><polygon fill="#000000" points="514.5,139.2666,517.4389,130.2215,511.5611,130.2215,514.5,139.2666" style="stroke:#000000;stroke-width:1;"/><text fill="#000000" font-family="sans-serif" font-size="13" lengthAdjust="spacing" textLength="27.46" x="523.5" y="139.6494">uses</text></g><!--link GetEmployeeListController to NurseContainer--><g class="link" data-entity-1="GetEmployeeListController" data-entity-2="NurseContainer" data-source-line="37" data-uid="lnk10" id="link_GetEmployeeListController_NurseContainer"><path codeLine="37" d="M431.65,240.8111 C371.17,266.2011 292.4221,299.2681 227.1221,326.6881" fill="none" id="GetEmployeeListController-to-NurseContainer" style="stroke:#181818;stroke-width:1;stroke-dasharray:7,7;"/><polygon fill="#181818" points="221.59,329.0111,231.4368,329.2147,226.2001,327.0753,228.3395,321.8386,221.59,329.0111" style="stroke:#181818;stroke-width:1;"/><polygon fill="#000000" points="351.8899,282.2023,361.3674,281.4104,359.0919,275.9908,351.8899,282.2023" style="stroke:#000000;stroke-width:1;"/><text fill="#000000" font-family="sans-serif" font-size="13" lengthAdjust="spacing" textLength="27.46" x="365.5" y="285.6494">uses</text></g><!--link GetEmployeeListController to ReceptionistContainer--><g class="link" data-entity-1="GetEmployeeListController" data-entity-2="ReceptionistContainer" data-source-line="38" data-uid="lnk11" id="link_GetEmployeeListController_ReceptionistContainer"><path codeLine="38" d="M553.15,240.8111 C587.06,266.2011 629.5172,297.9949 666.1372,325.4149" fill="none" id="GetEmployeeListController-to-ReceptionistContainer" style="stroke:#181818;stroke-width:1;stroke-dasharray:7,7;"/><polygon fill="#181818" points="670.94,329.0111,666.1332,320.4149,666.9376,326.0142,661.3383,326.8186,670.94,329.0111" style="stroke:#181818;stroke-width:1;"/><polygon fill="#000000" points="626.5023,283.2635,621.0236,275.4896,617.5005,280.1946,626.5023,283.2635" style="stroke:#000000;stroke-width:1;"/><text fill="#000000" font-family="sans-serif" font-size="13" lengthAdjust="spacing" textLength="27.46" x="631.5" y="285.6494">uses</text></g><!--link GetEmployeeListController to EmployeeList--><g class="link" data-entity-1="GetEmployeeListController" data-entity-2="EmployeeList" data-source-line="39" data-uid="lnk13" id="link_GetEmployeeListController_EmployeeList"><path codeLine="39" d="M509.5,241.0011 C509.5,272.5411 509.5,313.3511 509.5,341.2411" fill="none" id="GetEmployeeListController-to-EmployeeList" style="stroke:#181818;stroke-width:1;stroke-dasharray:7,7;"/><polygon fill="#181818" points="509.5,347.2411,513.5,338.2411,509.5,342.2411,505.5,338.2411,509.5,347.2411" style="stroke:#181818;stroke-width:1;"/><polygon fill="#000000" points="514.5,285.2666,517.4389,276.2215,511.5611,276.2215,514.5,285.2666" style="stroke:#000000;stroke-width:1;"/><text fill="#000000" font-family="sans-serif" font-size="13" lengthAdjust="spacing" textLength="42.6309" x="523.5" y="285.6494">creates</text></g><!--link NurseContainer to NurseUser--><g class="link" data-entity-1="NurseContainer" data-entity-2="NurseUser" data-source-line="40" data-uid="lnk14" id="link_NurseContainer_NurseUser"><path codeLine="40" d="M121.64,414.1311 C123.11,433.4111 127.68,455.7511 139.5,472.6211 C153.81,493.0411 177.05,507.6311 198.49,517.5611" fill="none" id="NurseContainer-NurseUser" style="stroke:#181818;stroke-width:1;"/><polygon fill="#000000" points="147.482,467.28,144.4465,458.2669,139.7285,461.7725,147.482,467.28" style="stroke:#000000;stroke-width:1;"/><text fill="#000000" font-family="sans-serif" font-size="13" lengthAdjust="spacing" textLength="139.458" x="153.5" y="468.6494">stores the information of</text><text fill="#000000" font-family="sans-serif" font-size="13" lengthAdjust="spacing" textLength="7.23" x="113.3605" y="436.293">1</text><text fill="#000000" font-family="sans-serif" font-size="13" lengthAdjust="spacing" textLength="19.5127" x="142.2934" y="511.6664">0..*</text></g><!--link ReceptionistContainer to ReceptionistUser--><g class="link" data-entity-1="ReceptionistContainer" data-entity-2="ReceptionistUser" data-source-line="41" data-uid="lnk15" id="link_ReceptionistContainer_ReceptionistUser"><path codeLine="41" d="M652.71,414.2611 C604.04,441.7211 541.21,477.1711 496.2,502.5611" fill="none" id="ReceptionistContainer-ReceptionistUser" style="stroke:#181818;stroke-width:1;"/><polygon fill="#000000" points="583.1453,465.7235,592.4672,463.8386,589.579,458.7193,583.1453,465.7235" style="stroke:#000000;stroke-width:1;"/><text fill="#000000" font-family="sans-serif" font-size="13" lengthAdjust="spacing" textLength="139.458" x="596.5" y="468.6494">stores the information of</text><text fill="#000000" font-family="sans-serif" font-size="13" lengthAdjust="spacing" textLength="7.23" x="633.4103" y="436.4437">1</text><text fill="#000000" font-family="sans-serif" font-size="13" lengthAdjust="spacing" textLength="19.5127" x="486.7664" y="491.3748">0..*</text></g><!--reverse link Person to ReceptionistUser--><g class="link" data-entity-1="Person" data-entity-2="ReceptionistUser" data-source-line="42" data-uid="lnk16" id="link_Person_ReceptionistUser"><path codeLine="42" d="M383.256,439.6203 C398.106,465.2803 406.6,479.9711 419.59,502.4311" fill="none" id="Person-backto-ReceptionistUser" style="stroke:#181818;stroke-width:1;"/><polygon fill="none" points="374.24,424.0411,378.063,442.6256,388.4491,436.615,374.24,424.0411" style="stroke:#181818;stroke-width:1;"/></g><!--reverse link Person to NurseUser--><g class="link" data-entity-1="Person" data-entity-2="NurseUser" data-source-line="43" data-uid="lnk17" id="link_Person_NurseUser"><path codeLine="43" d="M318.9536,440.2267 C312.1936,456.3867 310.83,457.4011 301.5,472.6211 C295.23,482.8511 287.39,493.1711 279.71,502.4111" fill="none" id="Person-backto-NurseUser" style="stroke:#181818;stroke-width:1;"/><polygon fill="none" points="325.9,423.6211,313.4184,437.9113,324.4888,442.5422,325.9,423.6211" style="stroke:#181818;stroke-width:1;"/></g><!--SRC=[ZL8xJyCm4DxpAqvcW8AIqe4bgh8Kn88GeYfhvQRNr98VaUq88U2_OpjjwfGKcYttFNENowsrjSd7uvfJQHl1irA9SScfCUcQqKfJaIIMMOwmc4_kOEOHkDyZWGYFQ1z4pTK7uXCpzetXEtmctoVWcP9MAyvHEnB03LHz_Cg1E88S_CiqHeg3vtEZ3NedocHhb8BqCxCN1iR2e2wIDYCCGi1eWDCvlsA9jMLAxgfs0Je2kfIO7OV5y_QZOlNe4FU2sYWPDd41aWhCOMurarKOr5ibSIaRiKAT0vCsJ55GnZlUO7FV9PYclTvBjeRMfx_9Y1wsw7WTRUYwMLRySTOSIEClKP3aDCbR75tnRDtmZSwMnv1NbHgfROL7ZGYuPq8WJO7SPjarx1uIhSqP6AkqqzijkgLjb1RKbmEryPR3PKdaIdwVxZ_JtMyp_N8Un-8UsFLCVW00]--></g></svg>