<svg xmlns="http://www.w3.org/2000/svg" xmlns:xlink="http://www.w3.org/1999/xlink" contentStyleType="text/css" data-diagram-type="CLASS" height="576px" preserveAspectRatio="none" style="width:726px;height:576px;background:#FFFFFF;" version="1.1" viewBox="0 0 726 576" width="726px" zoomAndPan="magnify"><title>US15 Class Diagram</title><defs/><g><g class="title" data-source-line="3"><text fill="#000000" font-family="sans-serif" font-size="14" font-weight="bold" lengthAdjust="spacing" textLength="136.1787" x="288.3896" y="25.1074">US15 Class Diagram</text></g><!--class GetEmployeeListView--><g class="entity" data-entity="GetEmployeeListView" data-source-line="5" data-uid="ent0002" id="entity_GetEmployeeListView"><rect fill="#F1F1F1" height="48" rx="2.5" ry="2.5" style="stroke:#181818;stroke-width:0.5;" width="168.9512" x="267" y="46.6211"/><ellipse cx="282" cy="62.6211" fill="#ADD1B2" rx="11" ry="11" style="stroke:#181818;stroke-width:1;"/><path d="M284.7656,58.4961 Q284.9219,58.2773 285.1094,58.168 Q285.2969,58.0586 285.5156,58.0586 Q285.8906,58.0586 286.125,58.3242 Q286.3594,58.5742 286.3594,59.1836 L286.3594,60.6367 Q286.3594,61.2461 286.125,61.5117 Q285.8906,61.7773 285.5156,61.7773 Q285.1719,61.7773 284.9688,61.5742 Q284.7656,61.3867 284.6563,60.8711 Q284.6094,60.5117 284.4219,60.3242 Q284.0938,59.9492 283.4844,59.7305 Q282.875,59.5117 282.25,59.5117 Q281.4844,59.5117 280.8438,59.8398 Q280.2188,60.168 279.7188,60.918 Q279.2344,61.668 279.2344,62.6992 L279.2344,63.793 Q279.2344,65.0273 280.125,65.8555 Q281.0156,66.668 282.6094,66.668 Q283.5469,66.668 284.2031,66.418 Q284.5938,66.2617 285.0156,65.8242 Q285.2813,65.5586 285.4219,65.4805 Q285.5781,65.4023 285.7813,65.4023 Q286.1094,65.4023 286.3594,65.668 Q286.625,65.918 286.625,66.2617 Q286.625,66.6055 286.2813,67.0117 Q285.7813,67.5898 284.9844,67.918 Q283.9063,68.3711 282.6094,68.3711 Q281.0938,68.3711 279.8906,67.7461 Q278.9063,67.2461 278.2188,66.1836 Q277.5313,65.1055 277.5313,63.8242 L277.5313,62.668 Q277.5313,61.3398 278.1406,60.1992 Q278.7656,59.043 279.8594,58.4336 Q280.9531,57.8086 282.1875,57.8086 Q282.9219,57.8086 283.5625,57.9805 Q284.2188,58.1367 284.7656,58.4961 Z " fill="#000000"/><text fill="#000000" font-family="sans-serif" font-size="14" lengthAdjust="spacing" textLength="136.9512" x="296" y="68.418">GetEmployeeListView</text><line style="stroke:#181818;stroke-width:0.5;" x1="268" x2="434.9512" y1="78.6211" y2="78.6211"/><line style="stroke:#181818;stroke-width:0.5;" x1="268" x2="434.9512" y1="86.6211" y2="86.6211"/></g><!--class GetEmployeeListController--><g class="entity" data-entity="GetEmployeeListController" data-source-line="8" data-uid="ent0003" id="entity_GetEmployeeListController"><rect fill="#F1F1F1" height="66.6211" rx="2.5" ry="2.5" style="stroke:#181818;stroke-width:0.5;" width="296.0195" x="203.5" y="173.6211"/><ellipse cx="263.6118" cy="189.6211" fill="#ADD1B2" rx="11" ry="11" style="stroke:#181818;stroke-width:1;"/><path d="M266.3774,185.4961 Q266.5337,185.2773 266.7212,185.168 Q266.9087,185.0586 267.1274,185.0586 Q267.5024,185.0586 267.7368,185.3242 Q267.9712,185.5742 267.9712,186.1836 L267.9712,187.6367 Q267.9712,188.2461 267.7368,188.5117 Q267.5024,188.7773 267.1274,188.7773 Q266.7837,188.7773 266.5806,188.5742 Q266.3774,188.3867 266.2681,187.8711 Q266.2212,187.5117 266.0337,187.3242 Q265.7056,186.9492 265.0962,186.7305 Q264.4868,186.5117 263.8618,186.5117 Q263.0962,186.5117 262.4556,186.8398 Q261.8306,187.168 261.3306,187.918 Q260.8462,188.668 260.8462,189.6992 L260.8462,190.793 Q260.8462,192.0273 261.7368,192.8555 Q262.6274,193.668 264.2212,193.668 Q265.1587,193.668 265.8149,193.418 Q266.2056,193.2617 266.6274,192.8242 Q266.8931,192.5586 267.0337,192.4805 Q267.1899,192.4023 267.3931,192.4023 Q267.7212,192.4023 267.9712,192.668 Q268.2368,192.918 268.2368,193.2617 Q268.2368,193.6055 267.8931,194.0117 Q267.3931,194.5898 266.5962,194.918 Q265.5181,195.3711 264.2212,195.3711 Q262.7056,195.3711 261.5024,194.7461 Q260.5181,194.2461 259.8306,193.1836 Q259.1431,192.1055 259.1431,190.8242 L259.1431,189.668 Q259.1431,188.3398 259.7524,187.1992 Q260.3774,186.043 261.4712,185.4336 Q262.5649,184.8086 263.7993,184.8086 Q264.5337,184.8086 265.1743,184.9805 Q265.8306,185.1367 266.3774,185.4961 Z " fill="#000000"/><text fill="#000000" font-family="sans-serif" font-size="14" lengthAdjust="spacing" textLength="167.2959" x="284.1118" y="195.418">GetEmployeeListController</text><line style="stroke:#181818;stroke-width:0.5;" x1="204.5" x2="498.5195" y1="205.6211" y2="205.6211"/><line style="stroke:#181818;stroke-width:0.5;" x1="204.5" x2="498.5195" y1="213.6211" y2="213.6211"/><ellipse cx="214.5" cy="228.4316" fill="#84BE84" rx="3" ry="3" style="stroke:#038048;stroke-width:1;"/><text fill="#000000" font-family="sans-serif" font-size="14" lengthAdjust="spacing" textLength="270.0195" x="223.5" y="232.7285">getEmployeeList(role) : List&lt;EmployeeList&gt;</text></g><!--class NurseContainer--><g class="entity" data-entity="NurseContainer" data-source-line="12" data-uid="ent0004" id="entity_NurseContainer"><rect fill="#F1F1F1" height="85.2422" rx="2.5" ry="2.5" style="stroke:#181818;stroke-width:0.5;" width="230.627" x="7" y="329.1211"/><ellipse cx="69.0396" cy="345.1211" fill="#ADD1B2" rx="11" ry="11" style="stroke:#181818;stroke-width:1;"/><path d="M71.8052,340.9961 Q71.9614,340.7773 72.1489,340.668 Q72.3364,340.5586 72.5552,340.5586 Q72.9302,340.5586 73.1646,340.8242 Q73.3989,341.0742 73.3989,341.6836 L73.3989,343.1367 Q73.3989,343.7461 73.1646,344.0117 Q72.9302,344.2773 72.5552,344.2773 Q72.2114,344.2773 72.0083,344.0742 Q71.8052,343.8867 71.6958,343.3711 Q71.6489,343.0117 71.4614,342.8242 Q71.1333,342.4492 70.5239,342.2305 Q69.9146,342.0117 69.2896,342.0117 Q68.5239,342.0117 67.8833,342.3398 Q67.2583,342.668 66.7583,343.418 Q66.2739,344.168 66.2739,345.1992 L66.2739,346.293 Q66.2739,347.5273 67.1646,348.3555 Q68.0552,349.168 69.6489,349.168 Q70.5864,349.168 71.2427,348.918 Q71.6333,348.7617 72.0552,348.3242 Q72.3208,348.0586 72.4614,347.9805 Q72.6177,347.9023 72.8208,347.9023 Q73.1489,347.9023 73.3989,348.168 Q73.6646,348.418 73.6646,348.7617 Q73.6646,349.1055 73.3208,349.5117 Q72.8208,350.0898 72.0239,350.418 Q70.9458,350.8711 69.6489,350.8711 Q68.1333,350.8711 66.9302,350.2461 Q65.9458,349.7461 65.2583,348.6836 Q64.5708,347.6055 64.5708,346.3242 L64.5708,345.168 Q64.5708,343.8398 65.1802,342.6992 Q65.8052,341.543 66.8989,340.9336 Q67.9927,340.3086 69.2271,340.3086 Q69.9614,340.3086 70.6021,340.4805 Q71.2583,340.6367 71.8052,340.9961 Z " fill="#000000"/><text fill="#000000" font-family="sans-serif" font-size="14" lengthAdjust="spacing" textLength="98.0479" x="89.5396" y="350.918">NurseContainer</text><line style="stroke:#181818;stroke-width:0.5;" x1="8" x2="236.627" y1="361.1211" y2="361.1211"/><rect fill="none" height="6" style="stroke:#C82930;stroke-width:1;" width="6" x="15" y="372.9316"/><text fill="#000000" font-family="sans-serif" font-size="14" lengthAdjust="spacing" textLength="158.7305" x="27" y="380.2285">nurses : List&lt;NurseUser&gt;</text><line style="stroke:#181818;stroke-width:0.5;" x1="8" x2="236.627" y1="387.7422" y2="387.7422"/><ellipse cx="18" cy="402.5527" fill="#84BE84" rx="3" ry="3" style="stroke:#038048;stroke-width:1;"/><text fill="#000000" font-family="sans-serif" font-size="14" lengthAdjust="spacing" textLength="204.627" x="27" y="406.8496">getNurseList() : List&lt;NurseUser&gt;</text></g><!--class ReceptionistContainer--><g class="entity" data-entity="ReceptionistContainer" data-source-line="17" data-uid="ent0005" id="entity_ReceptionistContainer"><rect fill="#F1F1F1" height="85.2422" rx="2.5" ry="2.5" style="stroke:#181818;stroke-width:0.5;" width="260.999" x="451" y="329.1211"/><ellipse cx="508.3774" cy="345.1211" fill="#ADD1B2" rx="11" ry="11" style="stroke:#181818;stroke-width:1;"/><path d="M511.1431,340.9961 Q511.2993,340.7773 511.4868,340.668 Q511.6743,340.5586 511.8931,340.5586 Q512.2681,340.5586 512.5024,340.8242 Q512.7368,341.0742 512.7368,341.6836 L512.7368,343.1367 Q512.7368,343.7461 512.5024,344.0117 Q512.2681,344.2773 511.8931,344.2773 Q511.5493,344.2773 511.3462,344.0742 Q511.1431,343.8867 511.0337,343.3711 Q510.9868,343.0117 510.7993,342.8242 Q510.4712,342.4492 509.8618,342.2305 Q509.2524,342.0117 508.6274,342.0117 Q507.8618,342.0117 507.2212,342.3398 Q506.5962,342.668 506.0962,343.418 Q505.6118,344.168 505.6118,345.1992 L505.6118,346.293 Q505.6118,347.5273 506.5024,348.3555 Q507.3931,349.168 508.9868,349.168 Q509.9243,349.168 510.5806,348.918 Q510.9712,348.7617 511.3931,348.3242 Q511.6587,348.0586 511.7993,347.9805 Q511.9556,347.9023 512.1587,347.9023 Q512.4868,347.9023 512.7368,348.168 Q513.0024,348.418 513.0024,348.7617 Q513.0024,349.1055 512.6587,349.5117 Q512.1587,350.0898 511.3618,350.418 Q510.2837,350.8711 508.9868,350.8711 Q507.4712,350.8711 506.2681,350.2461 Q505.2837,349.7461 504.5962,348.6836 Q503.9087,347.6055 503.9087,346.3242 L503.9087,345.168 Q503.9087,343.8398 504.5181,342.6992 Q505.1431,341.543 506.2368,340.9336 Q507.3306,340.3086 508.5649,340.3086 Q509.2993,340.3086 509.9399,340.4805 Q510.5962,340.6367 511.1431,340.9961 Z " fill="#000000"/><text fill="#000000" font-family="sans-serif" font-size="14" lengthAdjust="spacing" textLength="137.7441" x="528.8774" y="350.918">ReceptionistContainer</text><line style="stroke:#181818;stroke-width:0.5;" x1="452" x2="710.999" y1="361.1211" y2="361.1211"/><rect fill="none" height="6" style="stroke:#C82930;stroke-width:1;" width="6" x="459" y="372.9316"/><text fill="#000000" font-family="sans-serif" font-size="14" lengthAdjust="spacing" textLength="234.999" x="471" y="380.2285">receptionists : List&lt;ReceptionistUser&gt;</text><line style="stroke:#181818;stroke-width:0.5;" x1="452" x2="710.999" y1="387.7422" y2="387.7422"/><ellipse cx="462" cy="402.5527" fill="#84BE84" rx="3" ry="3" style="stroke:#038048;stroke-width:1;"/><text fill="#000000" font-family="sans-serif" font-size="14" lengthAdjust="spacing" textLength="206.2061" x="471" y="406.8496">getReceptionistList(receptionists)</text></g><!--class Person--><g class="entity" data-entity="Person" data-source-line="22" data-uid="ent0006" id="entity_Person"><rect fill="#F1F1F1" height="103.8633" rx="2.5" ry="2.5" style="stroke:#181818;stroke-width:0.5;" width="142.751" x="273" y="319.6211"/><ellipse cx="317.9463" cy="335.6211" fill="#ADD1B2" rx="11" ry="11" style="stroke:#181818;stroke-width:1;"/><path d="M320.7119,331.4961 Q320.8682,331.2773 321.0557,331.168 Q321.2432,331.0586 321.4619,331.0586 Q321.8369,331.0586 322.0713,331.3242 Q322.3057,331.5742 322.3057,332.1836 L322.3057,333.6367 Q322.3057,334.2461 322.0713,334.5117 Q321.8369,334.7773 321.4619,334.7773 Q321.1182,334.7773 320.915,334.5742 Q320.7119,334.3867 320.6025,333.8711 Q320.5557,333.5117 320.3682,333.3242 Q320.04,332.9492 319.4307,332.7305 Q318.8213,332.5117 318.1963,332.5117 Q317.4307,332.5117 316.79,332.8398 Q316.165,333.168 315.665,333.918 Q315.1807,334.668 315.1807,335.6992 L315.1807,336.793 Q315.1807,338.0273 316.0713,338.8555 Q316.9619,339.668 318.5557,339.668 Q319.4932,339.668 320.1494,339.418 Q320.54,339.2617 320.9619,338.8242 Q321.2275,338.5586 321.3682,338.4805 Q321.5244,338.4023 321.7275,338.4023 Q322.0557,338.4023 322.3057,338.668 Q322.5713,338.918 322.5713,339.2617 Q322.5713,339.6055 322.2275,340.0117 Q321.7275,340.5898 320.9307,340.918 Q319.8525,341.3711 318.5557,341.3711 Q317.04,341.3711 315.8369,340.7461 Q314.8525,340.2461 314.165,339.1836 Q313.4775,338.1055 313.4775,336.8242 L313.4775,335.668 Q313.4775,334.3398 314.0869,333.1992 Q314.7119,332.043 315.8057,331.4336 Q316.8994,330.8086 318.1338,330.8086 Q318.8682,330.8086 319.5088,330.9805 Q320.165,331.1367 320.7119,331.4961 Z " fill="#000000"/><text fill="#000000" font-family="sans-serif" font-size="14" lengthAdjust="spacing" textLength="44.3584" x="338.4463" y="341.418">Person</text><line style="stroke:#181818;stroke-width:0.5;" x1="274" x2="414.751" y1="351.6211" y2="351.6211"/><polygon fill="none" points="284,361.4316,288,365.4316,284,369.4316,280,365.4316" style="stroke:#B38D22;stroke-width:1;"/><text fill="#000000" font-family="sans-serif" font-size="14" lengthAdjust="spacing" textLength="79.3721" x="293" y="370.7285">name: String</text><polygon fill="none" points="284,380.0527,288,384.0527,284,388.0527,280,384.0527" style="stroke:#B38D22;stroke-width:1;"/><text fill="#000000" font-family="sans-serif" font-size="14" lengthAdjust="spacing" textLength="116.751" x="293" y="389.3496">phone_number: int</text><polygon fill="none" points="284,398.6738,288,402.6738,284,406.6738,280,402.6738" style="stroke:#B38D22;stroke-width:1;"/><text fill="#000000" font-family="sans-serif" font-size="14" lengthAdjust="spacing" textLength="77.8066" x="293" y="407.9707">email: String</text><line style="stroke:#181818;stroke-width:0.5;" x1="274" x2="414.751" y1="415.4844" y2="415.4844"/></g><!--class ReceptionistUser--><g class="entity" data-entity="ReceptionistUser" data-source-line="28" data-uid="ent0007" id="entity_ReceptionistUser"><rect fill="#F1F1F1" height="66.6211" rx="2.5" ry="2.5" style="stroke:#181818;stroke-width:0.5;" width="142.7305" x="478" y="502.6211"/><ellipse cx="494.8589" cy="518.6211" fill="#ADD1B2" rx="11" ry="11" style="stroke:#181818;stroke-width:1;"/><path d="M497.6245,514.4961 Q497.7808,514.2773 497.9683,514.168 Q498.1558,514.0586 498.3745,514.0586 Q498.7495,514.0586 498.9839,514.3242 Q499.2183,514.5742 499.2183,515.1836 L499.2183,516.6367 Q499.2183,517.2461 498.9839,517.5117 Q498.7495,517.7773 498.3745,517.7773 Q498.0308,517.7773 497.8276,517.5742 Q497.6245,517.3867 497.5151,516.8711 Q497.4683,516.5117 497.2808,516.3242 Q496.9526,515.9492 496.3433,515.7305 Q495.7339,515.5117 495.1089,515.5117 Q494.3433,515.5117 493.7026,515.8398 Q493.0776,516.168 492.5776,516.918 Q492.0933,517.668 492.0933,518.6992 L492.0933,519.793 Q492.0933,521.0273 492.9839,521.8555 Q493.8745,522.668 495.4683,522.668 Q496.4058,522.668 497.062,522.418 Q497.4526,522.2617 497.8745,521.8242 Q498.1401,521.5586 498.2808,521.4805 Q498.437,521.4023 498.6401,521.4023 Q498.9683,521.4023 499.2183,521.668 Q499.4839,521.918 499.4839,522.2617 Q499.4839,522.6055 499.1401,523.0117 Q498.6401,523.5898 497.8433,523.918 Q496.7651,524.3711 495.4683,524.3711 Q493.9526,524.3711 492.7495,523.7461 Q491.7651,523.2461 491.0776,522.1836 Q490.3901,521.1055 490.3901,519.8242 L490.3901,518.668 Q490.3901,517.3398 490.9995,516.1992 Q491.6245,515.043 492.7183,514.4336 Q493.812,513.8086 495.0464,513.8086 Q495.7808,513.8086 496.4214,513.9805 Q497.0776,514.1367 497.6245,514.4961 Z " fill="#000000"/><text fill="#000000" font-family="sans-serif" font-size="14" lengthAdjust="spacing" textLength="106.5996" x="509.272" y="524.418">ReceptionistUser</text><line style="stroke:#181818;stroke-width:0.5;" x1="479" x2="619.7305" y1="534.6211" y2="534.6211"/><rect fill="none" height="6" style="stroke:#C82930;stroke-width:1;" width="6" x="486" y="546.4316"/><text fill="#000000" font-family="sans-serif" font-size="14" lengthAdjust="spacing" textLength="116.7305" x="498" y="553.7285">receptionist_id : int</text><line style="stroke:#181818;stroke-width:0.5;" x1="479" x2="619.7305" y1="561.2422" y2="561.2422"/></g><!--class NurseUser--><g class="entity" data-entity="NurseUser" data-source-line="32" data-uid="ent0009" id="entity_NurseUser"><rect fill="#F1F1F1" height="66.6211" rx="2.5" ry="2.5" style="stroke:#181818;stroke-width:0.5;" width="102.2686" x="107.5" y="502.6211"/><ellipse cx="124.0144" cy="518.6211" fill="#ADD1B2" rx="11" ry="11" style="stroke:#181818;stroke-width:1;"/><path d="M126.78,514.4961 Q126.9362,514.2773 127.1237,514.168 Q127.3112,514.0586 127.53,514.0586 Q127.905,514.0586 128.1394,514.3242 Q128.3737,514.5742 128.3737,515.1836 L128.3737,516.6367 Q128.3737,517.2461 128.1394,517.5117 Q127.905,517.7773 127.53,517.7773 Q127.1862,517.7773 126.9831,517.5742 Q126.78,517.3867 126.6706,516.8711 Q126.6237,516.5117 126.4362,516.3242 Q126.1081,515.9492 125.4987,515.7305 Q124.8894,515.5117 124.2644,515.5117 Q123.4987,515.5117 122.8581,515.8398 Q122.2331,516.168 121.7331,516.918 Q121.2487,517.668 121.2487,518.6992 L121.2487,519.793 Q121.2487,521.0273 122.1394,521.8555 Q123.03,522.668 124.6237,522.668 Q125.5612,522.668 126.2175,522.418 Q126.6081,522.2617 127.03,521.8242 Q127.2956,521.5586 127.4362,521.4805 Q127.5925,521.4023 127.7956,521.4023 Q128.1237,521.4023 128.3737,521.668 Q128.6394,521.918 128.6394,522.2617 Q128.6394,522.6055 128.2956,523.0117 Q127.7956,523.5898 126.9987,523.918 Q125.9206,524.3711 124.6237,524.3711 Q123.1081,524.3711 121.905,523.7461 Q120.9206,523.2461 120.2331,522.1836 Q119.5456,521.1055 119.5456,519.8242 L119.5456,518.668 Q119.5456,517.3398 120.155,516.1992 Q120.78,515.043 121.8737,514.4336 Q122.9675,513.8086 124.2019,513.8086 Q124.9362,513.8086 125.5769,513.9805 Q126.2331,514.1367 126.78,514.4961 Z " fill="#000000"/><text fill="#000000" font-family="sans-serif" font-size="14" lengthAdjust="spacing" textLength="66.9033" x="138.3509" y="524.418">NurseUser</text><line style="stroke:#181818;stroke-width:0.5;" x1="108.5" x2="208.7686" y1="534.6211" y2="534.6211"/><rect fill="none" height="6" style="stroke:#C82930;stroke-width:1;" width="6" x="115.5" y="546.4316"/><text fill="#000000" font-family="sans-serif" font-size="14" lengthAdjust="spacing" textLength="76.2686" x="127.5" y="553.7285">nurse_id: int</text><line style="stroke:#181818;stroke-width:0.5;" x1="108.5" x2="208.7686" y1="561.2422" y2="561.2422"/></g><!--class DGSAdminUser--><g class="entity" data-entity="DGSAdminUser" data-source-line="36" data-uid="ent0011" id="entity_DGSAdminUser"><rect fill="#F1F1F1" height="66.6211" rx="2.5" ry="2.5" style="stroke:#181818;stroke-width:0.5;" width="131.5791" x="278.5" y="502.6211"/><ellipse cx="293.5" cy="518.6211" fill="#ADD1B2" rx="11" ry="11" style="stroke:#181818;stroke-width:1;"/><path d="M296.2656,514.4961 Q296.4219,514.2773 296.6094,514.168 Q296.7969,514.0586 297.0156,514.0586 Q297.3906,514.0586 297.625,514.3242 Q297.8594,514.5742 297.8594,515.1836 L297.8594,516.6367 Q297.8594,517.2461 297.625,517.5117 Q297.3906,517.7773 297.0156,517.7773 Q296.6719,517.7773 296.4688,517.5742 Q296.2656,517.3867 296.1563,516.8711 Q296.1094,516.5117 295.9219,516.3242 Q295.5938,515.9492 294.9844,515.7305 Q294.375,515.5117 293.75,515.5117 Q292.9844,515.5117 292.3438,515.8398 Q291.7188,516.168 291.2188,516.918 Q290.7344,517.668 290.7344,518.6992 L290.7344,519.793 Q290.7344,521.0273 291.625,521.8555 Q292.5156,522.668 294.1094,522.668 Q295.0469,522.668 295.7031,522.418 Q296.0938,522.2617 296.5156,521.8242 Q296.7813,521.5586 296.9219,521.4805 Q297.0781,521.4023 297.2813,521.4023 Q297.6094,521.4023 297.8594,521.668 Q298.125,521.918 298.125,522.2617 Q298.125,522.6055 297.7813,523.0117 Q297.2813,523.5898 296.4844,523.918 Q295.4063,524.3711 294.1094,524.3711 Q292.5938,524.3711 291.3906,523.7461 Q290.4063,523.2461 289.7188,522.1836 Q289.0313,521.1055 289.0313,519.8242 L289.0313,518.668 Q289.0313,517.3398 289.6406,516.1992 Q290.2656,515.043 291.3594,514.4336 Q292.4531,513.8086 293.6875,513.8086 Q294.4219,513.8086 295.0625,513.9805 Q295.7188,514.1367 296.2656,514.4961 Z " fill="#000000"/><text fill="#000000" font-family="sans-serif" font-size="14" lengthAdjust="spacing" textLength="99.5791" x="307.5" y="524.418">DGSAdminUser</text><line style="stroke:#181818;stroke-width:0.5;" x1="279.5" x2="409.0791" y1="534.6211" y2="534.6211"/><rect fill="none" height="6" style="stroke:#C82930;stroke-width:1;" width="6" x="286.5" y="546.4316"/><text fill="#000000" font-family="sans-serif" font-size="14" lengthAdjust="spacing" textLength="83.2686" x="298.5" y="553.7285">admin_id : int</text><line style="stroke:#181818;stroke-width:0.5;" x1="279.5" x2="409.0791" y1="561.2422" y2="561.2422"/></g><!--reverse link Person to ReceptionistUser--><g class="link" data-entity-1="Person" data-entity-2="ReceptionistUser" data-source-line="29" data-uid="lnk8" id="link_Person_ReceptionistUser"><path d="M423.1859,434.9925 C455.6959,460.7625 480.02,480.0511 508.46,502.5911" fill="none" id="Person-backto-ReceptionistUser" style="stroke:#181818;stroke-width:1;"/><polygon fill="none" points="409.08,423.8111,419.4587,439.6945,426.913,430.2906,409.08,423.8111" style="stroke:#181818;stroke-width:1;"/></g><!--reverse link Person to NurseUser--><g class="link" data-entity-1="Person" data-entity-2="NurseUser" data-source-line="33" data-uid="lnk10" id="link_Person_NurseUser"><path d="M309.5518,439.2535 C299.3018,456.2435 295.6,458.9011 280.5,472.6211 C260.07,491.1811 233.1,505.7611 209.72,516.1411" fill="none" id="Person-backto-NurseUser" style="stroke:#181818;stroke-width:1;"/><polygon fill="none" points="318.85,423.8411,304.4143,436.1541,314.6892,442.3529,318.85,423.8411" style="stroke:#181818;stroke-width:1;"/></g><!--reverse link Person to DGSAdminUser--><g class="link" data-entity-1="Person" data-entity-2="DGSAdminUser" data-source-line="37" data-uid="lnk12" id="link_Person_DGSAdminUser"><path d="M344.5,442.0411 C344.5,467.7011 344.5,479.9711 344.5,502.4311" fill="none" id="Person-backto-DGSAdminUser" style="stroke:#181818;stroke-width:1;"/><polygon fill="none" points="344.5,424.0411,338.5,442.0411,350.5,442.0411,344.5,424.0411" style="stroke:#181818;stroke-width:1;"/></g><!--link GetEmployeeListView to GetEmployeeListController--><g class="link" data-entity-1="GetEmployeeListView" data-entity-2="GetEmployeeListController" data-source-line="40" data-uid="lnk13" id="link_GetEmployeeListView_GetEmployeeListController"><path codeLine="40" d="M351.5,94.7411 C351.5,116.4511 351.5,143.1411 351.5,167.4911" fill="none" id="GetEmployeeListView-to-GetEmployeeListController" style="stroke:#181818;stroke-width:1;stroke-dasharray:7,7;"/><polygon fill="#181818" points="351.5,173.4911,355.5,164.4911,351.5,168.4911,347.5,164.4911,351.5,173.4911" style="stroke:#181818;stroke-width:1;"/><polygon fill="#000000" points="356.5,139.2666,359.4389,130.2215,353.5611,130.2215,356.5,139.2666" style="stroke:#000000;stroke-width:1;"/><text fill="#000000" font-family="sans-serif" font-size="13" lengthAdjust="spacing" textLength="27.46" x="365.5" y="139.6494">uses</text></g><!--link GetEmployeeListController to NurseContainer--><g class="link" data-entity-1="GetEmployeeListController" data-entity-2="NurseContainer" data-source-line="41" data-uid="lnk14" id="link_GetEmployeeListController_NurseContainer"><path codeLine="41" d="M305.43,240.8111 C269.65,266.2011 224.6627,298.1182 186.0327,325.5382" fill="none" id="GetEmployeeListController-to-NurseContainer" style="stroke:#181818;stroke-width:1;stroke-dasharray:7,7;"/><polygon fill="#181818" points="181.14,329.0111,190.7944,327.0635,185.2173,326.117,186.1638,320.5399,181.14,329.0111" style="stroke:#181818;stroke-width:1;"/><polygon fill="#000000" points="259.4224,283.1602,268.4997,280.3224,265.0981,275.5289,259.4224,283.1602" style="stroke:#000000;stroke-width:1;"/><text fill="#000000" font-family="sans-serif" font-size="13" lengthAdjust="spacing" textLength="27.46" x="272.5" y="285.6494">uses</text></g><!--link GetEmployeeListController to ReceptionistContainer--><g class="link" data-entity-1="GetEmployeeListController" data-entity-2="ReceptionistContainer" data-source-line="42" data-uid="lnk15" id="link_GetEmployeeListController_ReceptionistContainer"><path codeLine="42" d="M397.77,240.8111 C433.71,266.2011 478.8997,298.1289 517.7097,325.5489" fill="none" id="GetEmployeeListController-to-ReceptionistContainer" style="stroke:#181818;stroke-width:1;stroke-dasharray:7,7;"/><polygon fill="#181818" points="522.61,329.0111,517.5676,320.5509,518.5264,326.1259,512.9514,327.0847,522.61,329.0111" style="stroke:#181818;stroke-width:1;"/><polygon fill="#000000" points="475.5836,283.1517,469.8921,275.5322,466.5004,280.3328,475.5836,283.1517" style="stroke:#000000;stroke-width:1;"/><text fill="#000000" font-family="sans-serif" font-size="13" lengthAdjust="spacing" textLength="27.46" x="480.5" y="285.6494">uses</text></g><!--link NurseContainer to NurseUser--><g class="link" data-entity-1="NurseContainer" data-entity-2="NurseUser" data-source-line="43" data-uid="lnk16" id="link_NurseContainer_NurseUser"><path codeLine="43" d="M117.71,414.6011 C116.86,432.7311 117.52,454.0011 122.5,472.6211 C125.25,482.9011 130.14,493.2511 135.45,502.4811" fill="none" id="NurseContainer-NurseUser" style="stroke:#181818;stroke-width:1;"/><polygon fill="#000000" points="128.4894,468.1677,129.5804,458.72,123.8188,459.883,128.4894,468.1677" style="stroke:#000000;stroke-width:1;"/><text fill="#000000" font-family="sans-serif" font-size="13" lengthAdjust="spacing" textLength="139.458" x="136.5" y="468.6494">stores the information of</text><text fill="#000000" font-family="sans-serif" font-size="13" lengthAdjust="spacing" textLength="7.23" x="108.8964" y="436.516">1</text><text fill="#000000" font-family="sans-serif" font-size="13" lengthAdjust="spacing" textLength="19.5127" x="78.2007" y="491.279">0..*</text></g><!--link ReceptionistContainer to ReceptionistUser--><g class="link" data-entity-1="ReceptionistContainer" data-entity-2="ReceptionistUser" data-source-line="44" data-uid="lnk17" id="link_ReceptionistContainer_ReceptionistUser"><path codeLine="44" d="M573.26,414.4711 C567.87,441.8311 560.93,477.0711 555.95,502.3811" fill="none" id="ReceptionistContainer-ReceptionistUser" style="stroke:#181818;stroke-width:1;"/><polygon fill="#000000" points="569.534,468.1724,574.1651,459.8655,568.3979,458.7299,569.534,468.1724" style="stroke:#000000;stroke-width:1;"/><text fill="#000000" font-family="sans-serif" font-size="13" lengthAdjust="spacing" textLength="139.458" x="579.5" y="468.6494">stores the information of</text><text fill="#000000" font-family="sans-serif" font-size="13" lengthAdjust="spacing" textLength="7.23" x="552.6252" y="436.3661">1</text><text fill="#000000" font-family="sans-serif" font-size="13" lengthAdjust="spacing" textLength="19.5127" x="536.4431" y="491.4213">0..*</text></g><!--SRC=[ZL9BIyD04BxdLmphGQiajGSlGGBIIYyYOgdNiZRJTc4VONU2YlZVpMxwsDHKpItplUQnvnkYokN3OIMvfbh9R6dKS2cvSsaf-DfobIGaI2BCPwCR67i49Zia466ATAygQJuG7uIZ5u5ly9bydO37HfCrKg9jI01NiExY5ms80yZ1_zp6I77mVAojG-_4XMwDKj2-vdR2m9Wxj4NIPeH221ZqSFREpxZ4YeJHsrQZ01j1-voO7yV5zNQiM3qu13wXTKQ7NPo1vWfpc94LUXqArSPeNEXQlQBDGMWALLHSo3sljtVV2-0xeIux6Tqn5gA4rhQxsXvrAmvBRbH7eibqTbSgeK-bUYdtX4vWtyF9ikAN5vC3g_sH2vQS9dcBemVoRrt_-IFvaJ7piuqOf2cmwooxXEt7eZqsQaV6DdhQO3FxobZ5VGQObRVipsIZOBCpPZ-l-vVlDm00]--></g></svg>