<svg xmlns="http://www.w3.org/2000/svg" xmlns:xlink="http://www.w3.org/1999/xlink" contentStyleType="text/css" data-diagram-type="CLASS" height="284px" preserveAspectRatio="none" style="width:328px;height:284px;background:#FFFFFF;" version="1.1" viewBox="0 0 328 284" width="328px" zoomAndPan="magnify"><title>US15 - Domain Model</title><defs/><g><g class="title" data-source-line="2"><text fill="#000000" font-family="sans-serif" font-size="14" font-weight="bold" lengthAdjust="spacing" textLength="143.1309" x="85.4497" y="25.1074">US15 - Domain Model</text></g><!--class Person--><g class="entity" data-entity="Person" data-source-line="6" data-uid="ent0002" id="entity_Person"><rect fill="#F1F1F1" height="103.8633" rx="2.5" ry="2.5" style="stroke:#181818;stroke-width:0.5;" width="161.4404" x="74" y="46.6211"/><ellipse cx="128.291" cy="62.6211" fill="#ADD1B2" rx="11" ry="11" style="stroke:#181818;stroke-width:1;"/><path d="M131.0566,58.4961 Q131.2129,58.2773 131.4004,58.168 Q131.5879,58.0586 131.8066,58.0586 Q132.1816,58.0586 132.416,58.3242 Q132.6504,58.5742 132.6504,59.1836 L132.6504,60.6367 Q132.6504,61.2461 132.416,61.5117 Q132.1816,61.7773 131.8066,61.7773 Q131.4629,61.7773 131.2598,61.5742 Q131.0566,61.3867 130.9473,60.8711 Q130.9004,60.5117 130.7129,60.3242 Q130.3848,59.9492 129.7754,59.7305 Q129.166,59.5117 128.541,59.5117 Q127.7754,59.5117 127.1348,59.8398 Q126.5098,60.168 126.0098,60.918 Q125.5254,61.668 125.5254,62.6992 L125.5254,63.793 Q125.5254,65.0273 126.416,65.8555 Q127.3066,66.668 128.9004,66.668 Q129.8379,66.668 130.4941,66.418 Q130.8848,66.2617 131.3066,65.8242 Q131.5723,65.5586 131.7129,65.4805 Q131.8691,65.4023 132.0723,65.4023 Q132.4004,65.4023 132.6504,65.668 Q132.916,65.918 132.916,66.2617 Q132.916,66.6055 132.5723,67.0117 Q132.0723,67.5898 131.2754,67.918 Q130.1973,68.3711 128.9004,68.3711 Q127.3848,68.3711 126.1816,67.7461 Q125.1973,67.2461 124.5098,66.1836 Q123.8223,65.1055 123.8223,63.8242 L123.8223,62.668 Q123.8223,61.3398 124.4316,60.1992 Q125.0566,59.043 126.1504,58.4336 Q127.2441,57.8086 128.4785,57.8086 Q129.2129,57.8086 129.8535,57.9805 Q130.5098,58.1367 131.0566,58.4961 Z " fill="#000000"/><text fill="#000000" font-family="sans-serif" font-size="14" lengthAdjust="spacing" textLength="44.3584" x="148.791" y="68.418">Person</text><line style="stroke:#181818;stroke-width:0.5;" x1="75" x2="234.4404" y1="78.6211" y2="78.6211"/><text fill="#000000" font-family="sans-serif" font-size="14" lengthAdjust="spacing" textLength="73.917" x="80" y="97.7285">name : Text</text><text fill="#000000" font-family="sans-serif" font-size="14" lengthAdjust="spacing" textLength="149.4404" x="80" y="116.3496">phone_number : Integer</text><text fill="#000000" font-family="sans-serif" font-size="14" lengthAdjust="spacing" textLength="72.3516" x="80" y="134.9707">email : Text</text><line style="stroke:#181818;stroke-width:0.5;" x1="75" x2="234.4404" y1="142.4844" y2="142.4844"/></g><!--class NurseUser--><g class="entity" data-entity="NurseUser" data-source-line="12" data-uid="ent0003" id="entity_NurseUser"><rect fill="#F1F1F1" height="66.6211" rx="2.5" ry="2.5" style="stroke:#181818;stroke-width:0.5;" width="120.958" x="7" y="210.6211"/><ellipse cx="31.9246" cy="226.6211" fill="#ADD1B2" rx="11" ry="11" style="stroke:#181818;stroke-width:1;"/><path d="M34.6902,222.4961 Q34.8465,222.2773 35.034,222.168 Q35.2215,222.0586 35.4402,222.0586 Q35.8152,222.0586 36.0496,222.3242 Q36.284,222.5742 36.284,223.1836 L36.284,224.6367 Q36.284,225.2461 36.0496,225.5117 Q35.8152,225.7773 35.4402,225.7773 Q35.0965,225.7773 34.8934,225.5742 Q34.6902,225.3867 34.5809,224.8711 Q34.534,224.5117 34.3465,224.3242 Q34.0184,223.9492 33.409,223.7305 Q32.7996,223.5117 32.1746,223.5117 Q31.409,223.5117 30.7684,223.8398 Q30.1434,224.168 29.6434,224.918 Q29.159,225.668 29.159,226.6992 L29.159,227.793 Q29.159,229.0273 30.0496,229.8555 Q30.9402,230.668 32.534,230.668 Q33.4715,230.668 34.1277,230.418 Q34.5184,230.2617 34.9402,229.8242 Q35.2059,229.5586 35.3465,229.4805 Q35.5027,229.4023 35.7059,229.4023 Q36.034,229.4023 36.284,229.668 Q36.5496,229.918 36.5496,230.2617 Q36.5496,230.6055 36.2059,231.0117 Q35.7059,231.5898 34.909,231.918 Q33.8309,232.3711 32.534,232.3711 Q31.0184,232.3711 29.8152,231.7461 Q28.8309,231.2461 28.1434,230.1836 Q27.4559,229.1055 27.4559,227.8242 L27.4559,226.668 Q27.4559,225.3398 28.0652,224.1992 Q28.6902,223.043 29.784,222.4336 Q30.8777,221.8086 32.1121,221.8086 Q32.8465,221.8086 33.4871,221.9805 Q34.1434,222.1367 34.6902,222.4961 Z " fill="#000000"/><text fill="#000000" font-family="sans-serif" font-size="14" lengthAdjust="spacing" textLength="66.9033" x="48.1301" y="232.418">NurseUser</text><line style="stroke:#181818;stroke-width:0.5;" x1="8" x2="126.958" y1="242.6211" y2="242.6211"/><text fill="#000000" font-family="sans-serif" font-size="14" lengthAdjust="spacing" textLength="108.958" x="13" y="261.7285">nurse_id : Integer</text><line style="stroke:#181818;stroke-width:0.5;" x1="8" x2="126.958" y1="269.2422" y2="269.2422"/></g><!--class ReceptionistUser--><g class="entity" data-entity="ReceptionistUser" data-source-line="16" data-uid="ent0004" id="entity_ReceptionistUser"><rect fill="#F1F1F1" height="66.6211" rx="2.5" ry="2.5" style="stroke:#181818;stroke-width:0.5;" width="157.5303" x="163.5" y="210.6211"/><ellipse cx="187.0188" cy="226.6211" fill="#ADD1B2" rx="11" ry="11" style="stroke:#181818;stroke-width:1;"/><path d="M189.7844,222.4961 Q189.9407,222.2773 190.1282,222.168 Q190.3157,222.0586 190.5344,222.0586 Q190.9094,222.0586 191.1438,222.3242 Q191.3782,222.5742 191.3782,223.1836 L191.3782,224.6367 Q191.3782,225.2461 191.1438,225.5117 Q190.9094,225.7773 190.5344,225.7773 Q190.1907,225.7773 189.9875,225.5742 Q189.7844,225.3867 189.675,224.8711 Q189.6282,224.5117 189.4407,224.3242 Q189.1125,223.9492 188.5032,223.7305 Q187.8938,223.5117 187.2688,223.5117 Q186.5032,223.5117 185.8625,223.8398 Q185.2375,224.168 184.7375,224.918 Q184.2532,225.668 184.2532,226.6992 L184.2532,227.793 Q184.2532,229.0273 185.1438,229.8555 Q186.0344,230.668 187.6282,230.668 Q188.5657,230.668 189.2219,230.418 Q189.6125,230.2617 190.0344,229.8242 Q190.3,229.5586 190.4407,229.4805 Q190.5969,229.4023 190.8,229.4023 Q191.1282,229.4023 191.3782,229.668 Q191.6438,229.918 191.6438,230.2617 Q191.6438,230.6055 191.3,231.0117 Q190.8,231.5898 190.0032,231.918 Q188.925,232.3711 187.6282,232.3711 Q186.1125,232.3711 184.9094,231.7461 Q183.925,231.2461 183.2375,230.1836 Q182.55,229.1055 182.55,227.8242 L182.55,226.668 Q182.55,225.3398 183.1594,224.1992 Q183.7844,223.043 184.8782,222.4336 Q185.9719,221.8086 187.2063,221.8086 Q187.9407,221.8086 188.5813,221.9805 Q189.2375,222.1367 189.7844,222.4961 Z " fill="#000000"/><text fill="#000000" font-family="sans-serif" font-size="14" lengthAdjust="spacing" textLength="106.5996" x="202.9119" y="232.418">ReceptionistUser</text><line style="stroke:#181818;stroke-width:0.5;" x1="164.5" x2="320.0303" y1="242.6211" y2="242.6211"/><text fill="#000000" font-family="sans-serif" font-size="14" lengthAdjust="spacing" textLength="145.5303" x="169.5" y="261.7285">receptionist_id : Integer</text><line style="stroke:#181818;stroke-width:0.5;" x1="164.5" x2="320.0303" y1="269.2422" y2="269.2422"/></g><!--reverse link Person to NurseUser--><g class="link" data-entity-1="Person" data-entity-2="NurseUser" data-source-line="20" data-uid="lnk5" id="link_Person_NurseUser"><path codeLine="20" d="M114.0071,166.4126 C102.0071,186.2026 97.98,192.8411 87.34,210.3911" fill="none" id="Person-backto-NurseUser" style="stroke:#181818;stroke-width:1;"/><polygon fill="none" points="123.34,151.0211,108.8766,163.3016,119.1376,169.5235,123.34,151.0211" style="stroke:#181818;stroke-width:1;"/></g><!--reverse link Person to ReceptionistUser--><g class="link" data-entity-1="Person" data-entity-2="ReceptionistUser" data-source-line="21" data-uid="lnk6" id="link_Person_ReceptionistUser"><path codeLine="21" d="M195.4265,166.3677 C207.5565,186.1577 211.67,192.8411 222.43,210.3911" fill="none" id="Person-backto-ReceptionistUser" style="stroke:#181818;stroke-width:1;"/><polygon fill="none" points="186.02,151.0211,190.3109,169.5032,200.542,163.2322,186.02,151.0211" style="stroke:#181818;stroke-width:1;"/></g><!--SRC=[POwz3e9048JxUuhjh4Yqi34s9bfGQ8n8JOvZenUFFNAt9CIVT_T4GT1oPhwPtGcaoMmEQrjAJR2r1HhOD0fTnO8r6tpdqOWGmbyqLTB94fIHtg-OdSvhnbXPIlGLOIf4cy0UdRS4Dm50iaHOm14R3gewMyACwZ975zoO64_eGe3XaEcuHxUpgvt7r0UsdNgfJ1U3OayUK675sfBst1VSmFphVNvStgFeUsVa_cwA9m00]--></g></svg>