<svg xmlns="http://www.w3.org/2000/svg" xmlns:xlink="http://www.w3.org/1999/xlink" contentStyleType="text/css" data-diagram-type="DESCRIPTION" height="1431px" preserveAspectRatio="none" style="width:526px;height:1431px;background:#FFFFFF;" version="1.1" viewBox="0 0 526 1431" width="526px" zoomAndPan="magnify"><title>Use Case Diagram</title><defs/><g><g class="title" data-source-line="3"><text fill="#000000" font-family="sans-serif" font-size="14" font-weight="bold" lengthAdjust="spacing" textLength="122.9512" x="194.8539" y="25.1074">Use Case Diagram</text></g><!--entity N--><g class="entity" data-entity="N" data-source-line="6" data-uid="ent0002" id="entity_N"><ellipse cx="64.6724" cy="1189.6211" fill="#F1F1F1" rx="8" ry="8" style="stroke:#181818;stroke-width:0.5;"/><path d="M64.6724,1197.6211 L64.6724,1224.6211 M51.6724,1205.6211 L77.6724,1205.6211 M64.6724,1224.6211 L51.6724,1239.6211 M64.6724,1224.6211 L77.6724,1239.6211" fill="none" style="stroke:#181818;stroke-width:0.5;"/><text fill="#000000" font-family="sans-serif" font-size="14" lengthAdjust="spacing" textLength="37.3447" x="46" y="1256.2285">Nurse</text></g><!--entity N1--><g class="entity" data-entity="N1" data-source-line="7" data-uid="ent0003" id="entity_N1"><ellipse cx="352.1018" cy="1041.6415" fill="#F1F1F1" rx="150.6018" ry="32.5204" style="stroke:#181818;stroke-width:0.5;"/><text fill="#000000" font-family="sans-serif" font-size="14" lengthAdjust="spacing" textLength="280.1367" x="212.0335" y="1047.452">1. Issues and delivers vaccination certificates</text></g><!--entity N2--><g class="entity" data-entity="N2" data-source-line="8" data-uid="ent0004" id="entity_N2"><ellipse cx="351.75" cy="1134.5711" fill="#F1F1F1" rx="112.75" ry="24.95" style="stroke:#181818;stroke-width:0.5;"/><text fill="#000000" font-family="sans-serif" font-size="14" lengthAdjust="spacing" textLength="198.7754" x="252.3623" y="1140.3816">2. Visualize present patient's list</text></g><!--entity N3--><g class="entity" data-entity="N3" data-source-line="9" data-uid="ent0005" id="entity_N3"><ellipse cx="352.2193" cy="1220.465" fill="#F1F1F1" rx="114.7193" ry="25.3439" style="stroke:#181818;stroke-width:0.5;"/><text fill="#000000" font-family="sans-serif" font-size="14" lengthAdjust="spacing" textLength="203.1162" x="250.6612" y="1226.2755">3. Register the vaccination event</text></g><!--entity N4--><g class="entity" data-entity="N4" data-source-line="10" data-uid="ent0006" id="entity_N4"><ellipse cx="352.0484" cy="1307.5308" fill="#F1F1F1" rx="120.0484" ry="26.4097" style="stroke:#181818;stroke-width:0.5;"/><text fill="#000000" font-family="sans-serif" font-size="14" lengthAdjust="spacing" textLength="214.7852" x="244.6558" y="1313.3413">4. Access to patients health record</text></g><!--entity N5--><g class="entity" data-entity="N5" data-source-line="11" data-uid="ent0007" id="entity_N5"><ellipse cx="352.1645" cy="1397.754" fill="#F1F1F1" rx="128.6645" ry="28.1329" style="stroke:#181818;stroke-width:0.5;"/><text fill="#000000" font-family="sans-serif" font-size="14" lengthAdjust="spacing" textLength="233.4473" x="235.4409" y="1403.5645">5. Register post-vaccination reactions</text></g><!--entity R--><g class="entity" data-entity="R" data-source-line="19" data-uid="ent0013" id="entity_R"><ellipse cx="64.5205" cy="722.6211" fill="#F1F1F1" rx="8" ry="8" style="stroke:#181818;stroke-width:0.5;"/><path d="M64.5205,730.6211 L64.5205,757.6211 M51.5205,738.6211 L77.5205,738.6211 M64.5205,757.6211 L51.5205,772.6211 M64.5205,757.6211 L77.5205,772.6211" fill="none" style="stroke:#181818;stroke-width:0.5;"/><text fill="#000000" font-family="sans-serif" font-size="14" lengthAdjust="spacing" textLength="77.041" x="26" y="789.2285">Receptionist</text></g><!--entity R1--><g class="entity" data-entity="R1" data-source-line="20" data-uid="ent0014" id="entity_R1"><ellipse cx="351.8736" cy="580.7958" fill="#F1F1F1" rx="103.8736" ry="23.1747" style="stroke:#181818;stroke-width:0.5;"/><text fill="#000000" font-family="sans-serif" font-size="14" lengthAdjust="spacing" textLength="178.9785" x="262.3843" y="586.6064">1. Records the patient arrival</text></g><!--entity R2--><g class="entity" data-entity="R2" data-source-line="21" data-uid="ent0015" id="entity_R2"><ellipse cx="352.0191" cy="667.6249" fill="#F1F1F1" rx="133.0191" ry="29.0038" style="stroke:#181818;stroke-width:0.5;"/><text fill="#000000" font-family="sans-serif" font-size="14" lengthAdjust="spacing" textLength="242.7988" x="230.6197" y="673.4355">2. Confirm the vaccination appointment</text></g><!--entity R3--><g class="entity" data-entity="R3" data-source-line="22" data-uid="ent0016" id="entity_R3"><ellipse cx="352.0497" cy="753.431" fill="#F1F1F1" rx="97.0497" ry="21.8099" style="stroke:#181818;stroke-width:0.5;"/><text fill="#000000" font-family="sans-serif" font-size="14" lengthAdjust="spacing" textLength="163.4404" x="270.3295" y="759.2416">3. Set the patient as ready</text></g><!--entity R4--><g class="entity" data-entity="R4" data-source-line="23" data-uid="ent0017" id="entity_R4"><ellipse cx="352.1541" cy="838.7519" fill="#F1F1F1" rx="126.1541" ry="27.6308" style="stroke:#181818;stroke-width:0.5;"/><text fill="#000000" font-family="sans-serif" font-size="14" lengthAdjust="spacing" textLength="228.0332" x="238.1375" y="844.5625">4. Send the patient to a waiting room</text></g><!--entity R5--><g class="entity" data-entity="R5" data-source-line="24" data-uid="ent0018" id="entity_R5"><ellipse cx="351.8295" cy="937.787" fill="#F1F1F1" rx="168.8295" ry="36.1659" style="stroke:#181818;stroke-width:0.5;"/><text fill="#000000" font-family="sans-serif" font-size="14" lengthAdjust="spacing" textLength="318.3223" x="192.6684" y="943.5975">5. Schedule a vaccination appointment for a patient</text></g><!--entity U--><g class="entity" data-entity="U" data-source-line="32" data-uid="ent0024" id="entity_U"><ellipse cx="64.6172" cy="422.6211" fill="#F1F1F1" rx="8" ry="8" style="stroke:#181818;stroke-width:0.5;"/><path d="M64.6172,430.6211 L64.6172,457.6211 M51.6172,438.6211 L77.6172,438.6211 M64.6172,457.6211 L51.6172,472.6211 M64.6172,457.6211 L77.6172,472.6211" fill="none" style="stroke:#181818;stroke-width:0.5;"/><text fill="#000000" font-family="sans-serif" font-size="14" lengthAdjust="spacing" textLength="62.2344" x="33.5" y="489.2285">SNS User</text></g><!--entity U1--><g class="entity" data-entity="U1" data-source-line="33" data-uid="ent0025" id="entity_U1"><ellipse cx="351.7669" cy="408.4745" fill="#F1F1F1" rx="129.7669" ry="28.3534" style="stroke:#181818;stroke-width:0.5;"/><text fill="#000000" font-family="sans-serif" font-size="14" lengthAdjust="spacing" textLength="235.8193" x="233.8572" y="414.285">1. Schedule vaccination appointments</text></g><!--entity U2--><g class="entity" data-entity="U2" data-source-line="34" data-uid="ent0026" id="entity_U2"><ellipse cx="352.0052" cy="497.8221" fill="#F1F1F1" rx="114.0052" ry="25.201" style="stroke:#181818;stroke-width:0.5;"/><text fill="#000000" font-family="sans-serif" font-size="14" lengthAdjust="spacing" textLength="201.5439" x="251.2332" y="503.6327">2. Obtain vaccination certificates</text></g><!--entity Admin--><g class="entity" data-entity="Admin" data-source-line="39" data-uid="ent0029" id="entity_Admin"><ellipse cx="64.3481" cy="165.6211" fill="#F1F1F1" rx="8" ry="8" style="stroke:#181818;stroke-width:0.5;"/><path d="M64.3481,173.6211 L64.3481,200.6211 M51.3481,181.6211 L77.3481,181.6211 M64.3481,200.6211 L51.3481,215.6211 M64.3481,200.6211 L77.3481,215.6211" fill="none" style="stroke:#181818;stroke-width:0.5;"/><text fill="#000000" font-family="sans-serif" font-size="14" lengthAdjust="spacing" textLength="116.6963" x="6" y="232.2285">DGS Administrator</text></g><!--entity A1--><g class="entity" data-entity="A1" data-source-line="40" data-uid="ent0030" id="entity_A1"><ellipse cx="352.2287" cy="67.8668" fill="#F1F1F1" rx="99.2287" ry="22.2457" style="stroke:#181818;stroke-width:0.5;"/><text fill="#000000" font-family="sans-serif" font-size="14" lengthAdjust="spacing" textLength="168.4375" x="268.0099" y="73.6774">1. Configure vaccine's data</text></g><!--entity A2--><g class="entity" data-entity="A2" data-source-line="41" data-uid="ent0031" id="entity_A2"><ellipse cx="351.8328" cy="152.7876" fill="#F1F1F1" rx="128.8328" ry="28.1666" style="stroke:#181818;stroke-width:0.5;"/><text fill="#000000" font-family="sans-serif" font-size="14" lengthAdjust="spacing" textLength="233.8096" x="234.928" y="158.5982">2. Configure vaccination center's data</text></g><!--entity A3--><g class="entity" data-entity="A3" data-source-line="42" data-uid="ent0032" id="entity_A3"><ellipse cx="351.9341" cy="240.4079" fill="#F1F1F1" rx="109.4341" ry="24.2868" style="stroke:#181818;stroke-width:0.5;"/><text fill="#000000" font-family="sans-serif" font-size="14" lengthAdjust="spacing" textLength="191.4268" x="256.2207" y="246.2185">3. Register vaccination centers</text></g><!--entity A4--><g class="entity" data-entity="A4" data-source-line="43" data-uid="ent0033" id="entity_A4"><ellipse cx="351.9335" cy="322.6078" fill="#F1F1F1" rx="100.4335" ry="22.4867" style="stroke:#181818;stroke-width:0.5;"/><text fill="#000000" font-family="sans-serif" font-size="14" lengthAdjust="spacing" textLength="171.1855" x="266.3407" y="328.4183">4. Register staff information</text></g><!--link N to N1--><g class="link" data-entity-1="N" data-entity-2="N1" data-source-line="13" data-uid="lnk8" id="link_N_N1"><path d="M83.14,1194.1711 C103.79,1165.1911 140.61,1119.2811 183,1092.6211 C201.71,1080.8511 217.5995,1073.5633 238.9295,1066.4333" fill="none" id="N-to-N1" style="stroke:#181818;stroke-width:1;"/><polygon fill="#181818" points="244.62,1064.5311,234.8161,1063.5907,239.8779,1066.1162,237.3524,1071.178,244.62,1064.5311" style="stroke:#181818;stroke-width:1;"/></g><!--link N to N2--><g class="link" data-entity-1="N" data-entity-2="N2" data-source-line="14" data-uid="lnk9" id="link_N_N2"><path d="M83.23,1213.5011 C106.07,1204.4711 147.11,1188.7511 183,1177.6211 C212.33,1168.5211 239.1382,1161.3025 267.7782,1154.1625" fill="none" id="N-to-N2" style="stroke:#181818;stroke-width:1;"/><polygon fill="#181818" points="273.6,1152.7111,263.8997,1151.007,268.7485,1153.9206,265.8349,1158.7694,273.6,1152.7111" style="stroke:#181818;stroke-width:1;"/></g><!--link N to N3--><g class="link" data-entity-1="N" data-entity-2="N3" data-source-line="15" data-uid="lnk10" id="link_N_N3"><path d="M83.36,1220.6211 C114.06,1220.6211 173.18,1220.6211 231.49,1220.6211" fill="none" id="N-to-N3" style="stroke:#181818;stroke-width:1;"/><polygon fill="#181818" points="237.49,1220.6211,228.49,1216.6211,232.49,1220.6211,228.49,1224.6211,237.49,1220.6211" style="stroke:#181818;stroke-width:1;"/></g><!--link N to N4--><g class="link" data-entity-1="N" data-entity-2="N4" data-source-line="16" data-uid="lnk11" id="link_N_N4"><path d="M83.24,1227.7111 C106.09,1236.7011 147.14,1252.3911 183,1263.6211 C211.2,1272.4511 236.6191,1279.4766 264.4191,1286.6266" fill="none" id="N-to-N4" style="stroke:#181818;stroke-width:1;"/><polygon fill="#181818" points="270.23,1288.1211,262.51,1282.0054,265.3876,1286.8757,260.5173,1289.7532,270.23,1288.1211" style="stroke:#181818;stroke-width:1;"/></g><!--link N to N5--><g class="link" data-entity-1="N" data-entity-2="N5" data-source-line="17" data-uid="lnk12" id="link_N_N5"><path d="M83.04,1248.1911 C103.48,1278.0811 139.99,1325.0411 183,1351.6211 C203.45,1364.2611 221.6341,1371.8213 244.9441,1378.5313" fill="none" id="N-to-N5" style="stroke:#181818;stroke-width:1;"/><polygon fill="#181818" points="250.71,1380.1911,243.1677,1373.8575,245.9051,1378.808,240.9547,1381.5454,250.71,1380.1911" style="stroke:#181818;stroke-width:1;"/></g><!--link R to R1--><g class="link" data-entity-1="R" data-entity-2="R1" data-source-line="26" data-uid="lnk19" id="link_R_R1"><path d="M90.89,713.9311 C112.02,684.1211 144.74,644.6311 183,621.6211 C206.67,607.3911 229.1803,599.4255 255.7903,593.3555" fill="none" id="R-to-R1" style="stroke:#181818;stroke-width:1;"/><polygon fill="#181818" points="261.64,592.0211,251.9758,590.1228,256.7652,593.1331,253.755,597.9225,261.64,592.0211" style="stroke:#181818;stroke-width:1;"/></g><!--link R to R2--><g class="link" data-entity-1="R" data-entity-2="R2" data-source-line="27" data-uid="lnk20" id="link_R_R2"><path d="M103.19,740.6011 C126.17,732.7911 156.18,722.8211 183,714.6211 C210.37,706.2511 234.649,699.2673 261.679,691.7573" fill="none" id="R-to-R2" style="stroke:#181818;stroke-width:1;"/><polygon fill="#181818" points="267.46,690.1511,257.7177,688.7064,262.6425,691.4896,259.8593,696.4144,267.46,690.1511" style="stroke:#181818;stroke-width:1;"/></g><!--link R to R3--><g class="link" data-entity-1="R" data-entity-2="R3" data-source-line="28" data-uid="lnk21" id="link_R_R3"><path d="M103.12,753.6211 C141.58,753.6211 196.88,753.6211 248.9,753.6211" fill="none" id="R-to-R3" style="stroke:#181818;stroke-width:1;"/><polygon fill="#181818" points="254.9,753.6211,245.9,749.6211,249.9,753.6211,245.9,757.6211,254.9,753.6211" style="stroke:#181818;stroke-width:1;"/></g><!--link R to R4--><g class="link" data-entity-1="R" data-entity-2="R4" data-source-line="29" data-uid="lnk22" id="link_R_R4"><path d="M103.13,767.1411 C126.08,775.2111 156.09,785.4511 183,793.6211 C210.88,802.0911 235.8096,809.0366 263.2896,816.3066" fill="none" id="R-to-R4" style="stroke:#181818;stroke-width:1;"/><polygon fill="#181818" points="269.09,817.8411,261.4124,811.6723,264.2563,816.5623,259.3663,819.4062,269.09,817.8411" style="stroke:#181818;stroke-width:1;"/></g><!--link R to R5--><g class="link" data-entity-1="R" data-entity-2="R5" data-source-line="30" data-uid="lnk23" id="link_R_R5"><path d="M92.38,793.1511 C113.85,821.9611 146.33,859.9411 183,883.6211 C199.99,894.5911 213.751,901.4139 233.181,908.5839" fill="none" id="R-to-R5" style="stroke:#181818;stroke-width:1;"/><polygon fill="#181818" points="238.81,910.6611,231.7513,903.7927,234.1192,908.9301,228.9818,911.298,238.81,910.6611" style="stroke:#181818;stroke-width:1;"/></g><!--link U to U1--><g class="link" data-entity-1="U" data-entity-2="U1" data-source-line="36" data-uid="lnk27" id="link_U_U1"><path d="M95.51,448.8911 C131.09,443.2811 186.3932,434.5656 239.9832,426.1156" fill="none" id="U-to-U1" style="stroke:#181818;stroke-width:1;"/><polygon fill="#181818" points="245.91,425.1811,236.3968,422.6317,240.971,425.9599,237.6429,430.5341,245.91,425.1811" style="stroke:#181818;stroke-width:1;"/></g><!--link U to U2--><g class="link" data-entity-1="U" data-entity-2="U2" data-source-line="37" data-uid="lnk28" id="link_U_U2"><path d="M95.51,458.2511 C133.88,464.1611 196.1499,473.7577 252.4399,482.4277" fill="none" id="U-to-U2" style="stroke:#181818;stroke-width:1;"/><polygon fill="#181818" points="258.37,483.3411,250.0838,478.0177,253.4283,482.58,248.866,485.9244,258.37,483.3411" style="stroke:#181818;stroke-width:1;"/></g><!--link Admin to A1--><g class="link" data-entity-1="Admin" data-entity-2="A1" data-source-line="45" data-uid="lnk34" id="link_Admin_A1"><path d="M108.03,156.9511 C129.16,139.1811 155.93,119.3911 183,106.6211 C209.54,94.1011 234.5097,86.6919 262.4697,80.7819" fill="none" id="Admin-to-A1" style="stroke:#181818;stroke-width:1;"/><polygon fill="#181818" points="268.34,79.5411,258.7073,77.4888,263.4481,80.5751,260.3618,85.3159,268.34,79.5411" style="stroke:#181818;stroke-width:1;"/></g><!--link Admin to A2--><g class="link" data-entity-1="Admin" data-entity-2="A2" data-source-line="46" data-uid="lnk35" id="link_Admin_A2"><path d="M123.28,187.7211 C158.55,182.2811 198.7802,176.0861 240.3202,169.6761" fill="none" id="Admin-to-A2" style="stroke:#181818;stroke-width:1;"/><polygon fill="#181818" points="246.25,168.7611,236.7453,166.1804,241.3085,169.5236,237.9653,174.0868,246.25,168.7611" style="stroke:#181818;stroke-width:1;"/></g><!--link Admin to A3--><g class="link" data-entity-1="Admin" data-entity-2="A3" data-source-line="47" data-uid="lnk36" id="link_Admin_A3"><path d="M123.28,205.5211 C162.87,211.6311 210.2501,218.9269 255.3301,225.8769" fill="none" id="Admin-to-A3" style="stroke:#181818;stroke-width:1;"/><polygon fill="#181818" points="261.26,226.7911,252.9746,221.4665,256.3184,226.0292,251.7556,229.3731,261.26,226.7911" style="stroke:#181818;stroke-width:1;"/></g><!--link Admin to A4--><g class="link" data-entity-1="Admin" data-entity-2="A4" data-source-line="48" data-uid="lnk37" id="link_Admin_A4"><path d="M110.53,236.1511 C131.36,252.6411 157.18,270.6911 183,282.6211 C209.81,295.0111 234.9974,302.5045 263.0574,308.6145" fill="none" id="Admin-to-A4" style="stroke:#181818;stroke-width:1;"/><polygon fill="#181818" points="268.92,309.8911,260.9771,304.0678,264.0345,308.8273,259.275,311.8847,268.92,309.8911" style="stroke:#181818;stroke-width:1;"/></g><!--SRC=[VLF1Zfim4BtxAqQvx2b4IyYbXqhHhhJg9PL0z3urGx041jb3glRhQsoSO6tJ2poRUUFttfYNZdcoNmw7gKVDyz1dSXmEiwMzHFTe55uD3aAmufwWjWHlRX_Ur_sUMWOUmQXhnz0eGvBLg8L0oQE1tMKsbdQ05Yx2DLrwmkurWs_MpcG1TGCDzUf6ni8DfLGQ5pv8CgnQ9P791lhhWvzdy4FP6NlrXs0oP4apJ8xetYyMUcKvSF87vvX1ILVtXGnmHybXT7F4m3W-64K6Pod9siNVsjr2HzXp1yxdQ9h0AHwSq-QKQRIytnvZ27qugw6J41VOxxykrbQGHt2Ce8ZWT8-q94dJqYVQB9DaIw_CUfEhQa1Zr0txK9q6-JRgLfdXKoOuJQFIFCHaoZJBYZWzmIxscj-XDasn8ZVbRR7B4-4NAbRw2cOSXy1ASwnaHytixXm-qmMjYmDZrz33nLJwm9pD5UGH72Ce8dY4MbsgvN8RtwLE0hqBUI8ZZBDEO_t-ar7f_r_fEXUYza8SUGNvNT7xHmNdPb3Bc0swBS_nEuayFy3hRA8-Sdz0WuoX_1_3tjH6OThTruJsvCVvp0fEpkd0x_MMiMr1QJUemRD2TI64z-4jEucRHRvT7BUBGlm5]--></g></svg>