<?xml version="1.0" encoding="UTF-8" standalone="no"?><svg xmlns="http://www.w3.org/2000/svg" xmlns:xlink="http://www.w3.org/1999/xlink" contentScriptType="application/ecmascript" contentStyleType="text/css" height="328px" preserveAspectRatio="none" style="width:523px;height:328px;background:#FFFFFF;" version="1.1" viewBox="0 0 523 328" width="523px" zoomAndPan="magnify"><defs><filter height="300%" id="fhexiq5e65ny9" width="300%" x="-1" y="-1"><feGaussianBlur result="blurOut" stdDeviation="2.0"/><feColorMatrix in="blurOut" result="blurOut2" type="matrix" values="0 0 0 0 0 0 0 0 0 0 0 0 0 0 0 0 0 0 .4 0"/><feOffset dx="4.0" dy="4.0" in="blurOut2" result="blurOut3"/><feBlend in="SourceGraphic" in2="blurOut3" mode="normal"/></filter></defs><g><text fill="#000000" font-family="sans-serif" font-size="18" lengthAdjust="spacing" textLength="511" x="2" y="17.4023">This is a Default Use Case Diagram to serve as an example</text><!--MD5=[97ab183161fd5d1db7fba7485cf76add]
entity Admin--><ellipse cx="295" cy="35.1992" fill="#FEFECE" filter="url(#fhexiq5e65ny9)" rx="8" ry="8" style="stroke:#A80036;stroke-width:1.5;"/><path d="M295,43.1992 L295,70.1992 M282,51.1992 L308,51.1992 M295,70.1992 L282,85.1992 M295,70.1992 L308,85.1992 " fill="none" filter="url(#fhexiq5e65ny9)" style="stroke:#A80036;stroke-width:1.5;"/><text fill="#000000" font-family="sans-serif" font-size="14" lengthAdjust="spacing" textLength="82" x="254" y="104.2344">Main Admin</text><ellipse cx="150.0361" cy="66.4064" fill="#FEFECE" filter="url(#fhexiq5e65ny9)" rx="66.5361" ry="15.7072" style="stroke:#A80036;stroke-width:1.5;"/><text fill="#000000" font-family="sans-serif" font-size="14" lengthAdjust="spacing" textLength="84" x="105.0361" y="70.424">UC01 - Start</text><ellipse cx="159.8555" cy="291.8703" fill="#FEFECE" filter="url(#fhexiq5e65ny9)" rx="108.8555" ry="24.1711" style="stroke:#A80036;stroke-width:1.5;"/><text fill="#000000" font-family="sans-serif" font-size="14" lengthAdjust="spacing" textLength="183" x="68.3555" y="295.1613">UC02 - Use the application</text><!--MD5=[fee662a292a0353a69bd162820bae93b]
entity User--><ellipse cx="28" cy="35.1992" fill="#FEFECE" filter="url(#fhexiq5e65ny9)" rx="8" ry="8" style="stroke:#A80036;stroke-width:1.5;"/><path d="M28,43.1992 L28,70.1992 M15,51.1992 L41,51.1992 M28,70.1992 L15,85.1992 M28,70.1992 L41,85.1992 " fill="none" filter="url(#fhexiq5e65ny9)" style="stroke:#A80036;stroke-width:1.5;"/><text fill="#000000" font-family="sans-serif" font-size="14" lengthAdjust="spacing" textLength="31" x="12.5" y="104.2344">User</text><path d="M371.5,53.6992 L371.5,62.1992 L336.05,66.1992 L371.5,70.1992 L371.5,79.0098 A0,0 0 0 0 371.5,79.0098 L514.5,79.0098 A0,0 0 0 0 514.5,79.0098 L514.5,63.6992 L504.5,53.6992 L371.5,53.6992 A0,0 0 0 0 371.5,53.6992 " fill="#FBFB77" filter="url(#fhexiq5e65ny9)" style="stroke:#A80036;stroke-width:1.0;"/><path d="M504.5,53.6992 L504.5,63.6992 L514.5,63.6992 L504.5,53.6992 " fill="#FBFB77" style="stroke:#A80036;stroke-width:1.0;"/><text fill="#000000" font-family="sans-serif" font-size="13" lengthAdjust="spacing" textLength="122" x="377.5" y="71.2676">This is an example.</text><path d="M304,271.1992 L304,287.6992 L269.41,291.6992 L304,295.6992 L304,311.8203 A0,0 0 0 0 304,311.8203 L442,311.8203 A0,0 0 0 0 442,311.8203 L442,281.1992 L432,271.1992 L304,271.1992 A0,0 0 0 0 304,271.1992 " fill="#FBFB77" filter="url(#fhexiq5e65ny9)" style="stroke:#A80036;stroke-width:1.0;"/><path d="M432,271.1992 L432,281.1992 L442,281.1992 L432,271.1992 " fill="#FBFB77" style="stroke:#A80036;stroke-width:1.0;"/><text fill="#000000" font-family="sans-serif" font-size="13" lengthAdjust="spacing" textLength="97" x="310" y="288.7676">A note can also</text><text fill="#000000" font-family="sans-serif" font-size="13" lengthAdjust="spacing" textLength="117" x="310" y="304.0781">be on several lines</text><path d="M78,166.6992 L78,207.3203 L242,207.3203 L242,176.6992 L232,166.6992 L78,166.6992 " fill="#FBFB77" filter="url(#fhexiq5e65ny9)" style="stroke:#A80036;stroke-width:1.0;"/><path d="M232,166.6992 L232,176.6992 L242,176.6992 L232,166.6992 " fill="#FBFB77" style="stroke:#A80036;stroke-width:1.0;"/><text fill="#000000" font-family="sans-serif" font-size="13" lengthAdjust="spacing" textLength="143" x="84" y="184.2676">This note is connected</text><text fill="#000000" font-family="sans-serif" font-size="13" lengthAdjust="spacing" textLength="115" x="84" y="199.5781">to several objects.</text><!--MD5=[f4b2be5085d6f52f3a0e36c62efcf3ad]
link User to Start--><path d="M43.73,66.1992 C55.13,66.1992 66.53,66.1992 77.93,66.1992 " fill="none" id="User-to-Start" style="stroke:#A80036;stroke-width:1.0;"/><polygon fill="#A80036" points="83.16,66.1992,74.16,62.1992,78.16,66.1992,74.16,70.1992,83.16,66.1992" style="stroke:#A80036;stroke-width:1.0;"/><!--MD5=[9b1e83a301d632e8d5a1d64f176fc1f5]
link User to Use--><path d="M30.56,106.6992 C34.01,136.3592 42.08,176.9792 61,207.6992 C75.49,231.2392 98.97,251.3492 119.43,265.8692 " fill="none" id="User-to-Use" style="stroke:#A80036;stroke-width:1.0;"/><polygon fill="#A80036" points="123.75,268.8892,118.6727,260.4499,119.6545,266.0209,114.0835,267.0027,123.75,268.8892" style="stroke:#A80036;stroke-width:1.0;"/><!--MD5=[eedd4bf29063d6184eb2b121c1f53f26]
link Admin to Use--><path d="M291.82,106.7492 C287.93,136.4292 279.26,177.0492 260,207.6992 C245.21,231.2392 221.48,251.3492 200.85,265.8792 " fill="none" id="Admin-to-Use" style="stroke:#A80036;stroke-width:1.0;"/><polygon fill="#A80036" points="196.5,268.8892,206.1752,267.0481,200.6089,266.0402,201.6168,260.4739,196.5,268.8892" style="stroke:#A80036;stroke-width:1.0;"/><!--MD5=[18a852dfe38659cca840945dc1aef57a]
link Start to N2--><path d="M151.23,81.7892 C153.01,103.0192 156.33,142.4692 158.33,166.3292 " fill="none" id="Start-N2" style="stroke:#A80036;stroke-width:1.0;stroke-dasharray:7.0,7.0;"/><!--MD5=[582b4f0da0cf139d0f490575cc867c3a]
link N2 to Use--><path d="M160,207.9592 C160,224.9492 160,249.4692 160,267.4092 " fill="none" id="N2-Use" style="stroke:#A80036;stroke-width:1.0;stroke-dasharray:7.0,7.0;"/><!--MD5=[e83308af92d646941a015d0c3df74c39]
@startuml
'https://plantuml.com/use-case-diagram

title This is a Default Use Case Diagram to serve as an example

:Main Admin: as Admin
(UC01 - Start) as (Start)
(UC02 - Use the application) as (Use)

User -> (Start)
User - -> (Use)

Admin - - -> (Use)

note right of Admin : This is an example.

note right of (Use)
A note can also
be on several lines
end note

note "This note is connected\nto several objects." as N2
(Start) .. N2
N2 .. (Use)
@enduml

@startuml

title This is a Default Use Case Diagram to serve as an example

:Main Admin: as Admin
(UC01 - Start) as (Start)
(UC02 - Use the application) as (Use)

User -> (Start)
User - -> (Use)

Admin - - -> (Use)

note right of Admin : This is an example.

note right of (Use)
A note can also
be on several lines
end note

note "This note is connected\nto several objects." as N2
(Start) .. N2
N2 .. (Use)
@enduml

PlantUML version 1.2021.7(Sun May 23 13:40:07 WEST 2021)
(GPL source distribution)
Java Runtime: OpenJDK Runtime Environment
JVM: OpenJDK 64-Bit Server VM
Default Encoding: UTF-8
Language: en
Country: PT
--></g></svg>